<svg xmlns="http://www.w3.org/2000/svg" version="1.1" id="Vrstva_2" x="0" y="0" viewBox="0 0 566.9 566.9" preserveAspectRatio="xMidYMid meet" enable-background="new 0 0 566.9 566.9" xml:space="preserve"><path fill="#DD3B3C" d="M330.4 434.7h-34.6c-1.6 0-2.8-1.3-2.8-2.8s1.3-2.8 2.8-2.8h34.6c1.6 0 2.8 1.3 2.8 2.8S332 434.7 330.4 434.7zM272.8 434.7h-34.6c-1.6 0-2.8-1.3-2.8-2.8s1.3-2.8 2.8-2.8h34.6c1.6 0 2.8 1.3 2.8 2.8S274.3 434.7 272.8 434.7zM215.1 434.7h-34.6c-1.6 0-2.8-1.3-2.8-2.8s1.3-2.8 2.8-2.8h34.6c1.6 0 2.8 1.3 2.8 2.8S216.7 434.7 215.1 434.7zM157.5 434c-0.2 0-0.4 0-0.6-0.1 -12.8-2.9-22.3-14-23.3-27 -0.1-1.6 1.1-2.9 2.6-3 1.6-0.1 2.9 1.1 3 2.6 0.8 10.6 8.5 19.6 18.9 21.9 1.5 0.3 2.5 1.9 2.1 3.4C159.9 433.1 158.8 434 157.5 434zM353.4 433.5c-1.2 0-2.3-0.8-2.7-2 -0.5-1.5 0.4-3.1 1.9-3.5 10.2-3.1 17.3-12.6 17.3-23.2v-0.1c0-1.6 1.3-2.8 2.8-2.8s2.8 1.3 2.8 2.8v0.1c0 13.1-8.8 24.8-21.3 28.6C353.9 433.5 353.6 433.5 353.4 433.5zM136.3 386.5c-1.6 0-2.8-1.3-2.8-2.8V349c0-1.6 1.3-2.8 2.8-2.8s2.8 1.3 2.8 2.8v34.6C139.2 385.2 137.9 386.5 136.3 386.5zM136.3 328.8c-1.6 0-2.8-1.3-2.8-2.8v-34.6c0-1.6 1.3-2.8 2.8-2.8s2.8 1.3 2.8 2.8V326C139.2 327.5 137.9 328.8 136.3 328.8zM136.3 271.1c-1.6 0-2.8-1.2-2.8-2.8v-0.1c0-13 8.7-24.8 21.2-28.6 1.5-0.5 3.1 0.4 3.5 1.9 0.5 1.5-0.4 3.1-1.9 3.5 -10.1 3.1-17.2 12.6-17.2 23.2C139.2 269.8 137.9 271.1 136.3 271.1zM372.6 269.1c-1.5 0-2.7-1.1-2.8-2.6 -0.8-10.6-8.6-19.6-18.9-21.9 -1.5-0.3-2.5-1.9-2.1-3.4 0.3-1.5 1.9-2.5 3.4-2.1 12.8 2.9 22.4 14 23.3 27 0.1 1.6-1.1 2.9-2.6 3C372.7 269.1 372.6 269.1 372.6 269.1zM328.4 244h-34.6c-1.6 0-2.8-1.3-2.8-2.8s1.3-2.8 2.8-2.8h34.6c1.6 0 2.8 1.3 2.8 2.8S330 244 328.4 244zM270.8 244h-34.6c-1.6 0-2.8-1.3-2.8-2.8s1.3-2.8 2.8-2.8h34.6c1.6 0 2.8 1.3 2.8 2.8S272.3 244 270.8 244zM213.1 244h-34.6c-1.6 0-2.8-1.3-2.8-2.8s1.3-2.8 2.8-2.8h34.6c1.6 0 2.8 1.3 2.8 2.8S214.7 244 213.1 244z"/><path fill="#FE4445" d="M566.9 453.5c0 62.4-51 113.4-113.4 113.4H113.4C51 566.9 0 515.9 0 453.5V113.4C0 51 51 0 113.4 0h340.2c62.4 0 113.4 51 113.4 113.4V453.5z"/><linearGradient id="SVGID_1_" gradientUnits="userSpaceOnUse" x1="111.9" y1="144.9" x2="517.1" y2="550.1"><!-- Made for www.totalmoney.sk --><stop offset="0" stop-color="#DD3B3C"/><stop offset="1" stop-color="#FE4445"/></linearGradient><path fill="url(#SVGID_1_)" d="M566.9 318L358.4 109.4l-32.8 8.5L285 77l-151.5 46.3 39 129.7 -51 143 -0.2 40.4 130.5 130.5h201.7c62.3 0 113.3-51 113.4-113.3L566.9 318z"/><path fill="#FFFFFF" d="M399.7 413.1c0 15.1-7.6 33.4-25.2 40.6H398c23.4 0 42.5-19.1 42.5-42.5v-40.4h-40.9V413.1zM398 215.4h-24.6c13.8 6.9 26.3 23.1 26.3 40.6v43h40.9v-41.1C440.5 234.5 421.4 215.4 398 215.4z"/><path fill="#FFFFFF" d="M437.5 306.6h-75.3c-9.4 0-17 7.7-17 17v22.8c0 9.4 7.7 17 17 17h75.3c9.4 0 17-7.7 17-17v-22.8C454.5 314.2 446.9 306.6 437.5 306.6zM389.5 339.4c0 6.6-5.4 12-12 12h-9.1c-6.6 0-12-5.4-12-12v-9.1c0-6.6 5.4-12 12-12h9.1c6.6 0 12 5.4 12 12V339.4z"/><path fill="#FFFFFF" d="M360.6 299h31.6v-40.1c0-23.4-19.1-40.5-42.5-40.5H155.9c-23.4 0-42.5 19.1-42.5 42.5v150.2c0 23.4 19.1 42.5 42.5 42.5h193.7c23.4 0 42.5-19.1 42.5-42.5v-40.4h-31.6c-10.7 0-22.4-10.7-22.4-21.4v-28.8C338.1 309.8 349.9 299 360.6 299z"/><path fill="#FFFFFF" d="M285.7 77.1l-78.2 23.7 85.4-0.1L285.7 77.1zM133.6 123.3l26.4 87h34.7l-0.1-105.5L133.6 123.3z"/><path fill="#FFFFFF" d="M268.3 135.2c-7 0-12.1 8.5-12.1 24.6 0 15.3 4.7 24 12 24 8.2 0 12.1-9.5 12.1-24.6C280.3 144.7 276.6 135.2 268.3 135.2zM357.9 109l-155 0.1 0.1 101.2h140.6c5 0 9 0.4 14.4 1L357.9 109zM238.3 189h-7.7v-51.5h-0.2l-10.2 5.5 -1.5-6.1 12.9-6.9h6.8V189zM267.8 190c-11.5 0-19.3-10.8-19.5-30.3 0-19.8 8.5-30.7 20.5-30.7 12.4 0 19.5 11.1 19.5 29.8C288.3 178.9 280.9 190 267.8 190zM315.6 190c-11.5 0-19.3-10.8-19.5-30.3 0-19.8 8.5-30.7 20.5-30.7 12.4 0 19.5 11.1 19.5 29.8C336.1 178.9 328.7 190 315.6 190zM316.2 135.2c-7 0-12.1 8.5-12.1 24.6 0 15.3 4.7 24 12 24 8.2 0 12.1-9.5 12.1-24.6C328.1 144.7 324.4 135.2 316.2 135.2z"/></svg>