<svg xmlns="http://www.w3.org/2000/svg" xml:space="preserve" viewBox="0 0 668 522" preserveAspectRatio="xMidYMid meet" style="image-rendering:optimizeQuality;shape-rendering:geometricPrecision;text-rendering:geometricPrecision"><defs><style type="text/css">
    .fil0 {fill:#00A0E3}
    .fil1 {fill:#033F69}
   </style></defs><!-- Made for www.totalmoney.sk --><path class="fil0" d="M335.5 225.4c62.2 0 112.6-50.5 112.6-112.7 0-62.2-50.4-112.7-112.6-112.7-62.2 0-112.6 50.5-112.6 112.7 0 62.2 50.4 112.7 112.6 112.7z"/><path class="fil0" d="M418.6 203.9c-21.5 23.3-59.3 46.6-107.9 46.6-37.7 0-70.1-14.6-90.7-30.9-123 12.9-214.4 31.2-214.4 31.2l0 49.8 651.7-0.1 0.1-102.7c0 0-111.2-0.7-238.8 6.1z"/><path class="fil1" d="M141.6 513.6c-11.6 3.3-28.8 6.7-44.6 6.7-53.9 0-97-29.2-97-88.8 0-56 45-84.1 97-84.1 17.2 0 27.4 2.2 44.1 5.3l0 44.1c-10.2-3.4-20.7-6.2-31.1-6.2-26.5 0-46.4 14.6-46.4 41.9 0 28.7 18.6 43.3 44.3 43.3 11.4 0 22.3-2.4 33.7-6.5l0 44.3z"/><path class="fil1" d="M288.7 396c-13.9-5-30.4-8.4-48.1-8.4-9.7 0-26.7 0.2-26.7 11 0 21.8 85.2 1.2 85.2 65.6 0 44.8-43 56-78.9 56-23.9 0-43.6-2.4-66.8-7.9l0-43.3c16.7 7.2 37.1 11 55.7 11 14.6 0 27.9-3.1 27.9-11.5 0-22.5-85.2-2.2-85.2-67.1 0-46 46.4-54.1 83.3-54.1 17.4 0 36.7 2.2 53.6 5.8l0 42.9z"/><path class="fil1" d="M398.5 520.3c-56.6 0-89.8-29.5-89.8-86.5 0-56 33.2-86.5 89.8-86.5 56.6 0 90.5 30.4 90.5 86.5 0 57-33.9 86.5-90.5 86.5l0 0zm0-40.2c24.6 0 25.3-28.3 25.5-46.2-0.2-15.6-1.8-46.2-25.5-46.2-23 0-24.8 30.7-24.8 46.2 0 18 2.5 46.2 24.8 46.2z"/><path class="fil1" d="M504.4 350.2l101.9 0c28.1 0 55.7 9.3 55.7 41.2 0 23-11.8 35.2-33.4 41l0 0.5c22.5 3.1 36.4 21.3 36.4 38.1 0 42.1-33 46.5-66.6 46.5l-94 0 0-167.2zm58.5 132.7l16.2 0c11.4 0 23.7-4.3 23.7-17.3 0-14.4-11.6-17-23.2-17l-16.7 0 0 34.3zm0-68.7l15.5 0c10.9 0 22.8-3.3 22.8-16 0-12.5-10.2-16.3-21.4-16.3l-16.9 0 0 32.3z"/><path class="fil1" d="M32.2 335.2c0 0 19.5 16.8 49.1 16.9 27.9 0.1 48.6-13.8 59.5-25.5l-4.7-3.6c0 0-14.2 15.6-41.1 15.4-28.5-0.3-44.8-19.7-44.8-19.7l-18 16.5z"/></svg>