<svg xmlns="http://www.w3.org/2000/svg" version="1.1" id="Vrstva_2" x="0" y="0" viewBox="0 0 566.9 566.9" preserveAspectRatio="xMidYMid meet" enable-background="new 0 0 566.9 566.9" xml:space="preserve"><style>.s0{stop-color:#DD3B3C;}.s1{stop-color:#FE4445;}</style><path fill="#FE4445" d="M566.9 453.5c0 62.4-51 113.4-113.4 113.4H113.4C51 566.9 0 515.9 0 453.5V113.4C0 51 51 0 113.4 0h340.2c62.4 0 113.4 51 113.4 113.4V453.5z"/><linearGradient id="SVGID_1_" gradientUnits="userSpaceOnUse" x1="183.5" y1="152.4" x2="549.2" y2="518.1"><stop offset="0" stop-color="#DD3B3C"/><stop offset="1" stop-color="#FE4445"/></linearGradient><path fill="url(#SVGID_1_)" d="M566.9 318.8L365.4 117.3l-19.7 75.6h-47.1l-77.5-78 -6.7 81.5 -64.2 14.5 28.7 28.4 68.1 83.6 -12.6 38.4 28.4 28.1 -11.6 10.6 16.4 16.1 0.2 37.7L381 566.9h72.6c62.3 0 113.4-51 113.4-113.3L566.9 318.8z"/><path fill="#FFFFFF" d="M407.5 216.9H159.3c-6.6 0-12-5.4-12-12v-4.3c0-6.6 5.4-12 12-12h248.2c6.6 0 12 5.4 12 12v4.3C419.5 211.5 414.1 216.9 407.5 216.9z"/><path fill="#FFFFFF" d="M306 404.6h-45c-6.6 0-12-5.4-12-12v-4.3c0-6.6 5.4-12 12-12h45c6.6 0 12 5.4 12 12v4.3C318 399.2 312.6 404.6 306 404.6z"/><path fill="#FFFFFF" d="M170.4 225.6c0 28.8 7 37 15.5 48.2l25.5 33.3c8.5 11.1 15.5 16.4 15.5 30.4v5.4c0 14 11.5 25.5 25.5 25.5h62.6c14 0 25.5-11.5 25.5-25.5v-5.4c0-14 6.9-19.3 15.4-30.5l25.2-33.2c8.5-11.2 15.4-19.1 15.4-48.2H170.4z"/><rect x="267.7" y="412.3" fill="#FFFFFF" width="32" height="41.3"/><!-- Made for www.totalmoney.sk --><path fill="#FFFFFF" d="M214.3 113.5h-4c-6.6 0-12 5.4-12 12V190h28v-64.5C226.3 118.9 220.9 113.5 214.3 113.5zM356.3 113.5h-4c-6.6 0-12 5.4-12 12V190h28v-64.5C368.3 118.9 362.9 113.5 356.3 113.5z"/><linearGradient id="SVGID_2_" gradientUnits="userSpaceOnUse" x1="264" y1="272.5" x2="302.5" y2="311"><stop offset="0" stop-color="#DD3B3C"/><stop offset="1" stop-color="#FE4445"/></linearGradient><polygon fill="url(#SVGID_2_)" points="286.2 250.3 263.3 303.2 280.9 296.9 280.3 333.3 304.1 280 286.2 284.8 "/></svg>