<?xml version="1.0" encoding="utf-8"?>
<!DOCTYPE svg PUBLIC "-//W3C//DTD SVG 1.1//EN" "http://www.w3.org/Graphics/SVG/1.1/DTD/svg11.dtd">
<svg version="1.1" id="Layer_1" xmlns="http://www.w3.org/2000/svg" xmlns:xlink="http://www.w3.org/1999/xlink" x="0px" y="0px"
	  viewBox="100.125 0 614.195 425.087" preserveAspectRatio="xMidYMid meet" enable-background="new 100.125 0 614.195 425.087"
	 xml:space="preserve">
<g id="Vrstva_x0020_1">
	<polygon fill="#0F1E7A" points="581.624,211.173 714.32,167.617 581.624,124.527 581.624,0 402.275,62.223 228.874,2.686 
		228.874,122.115 100.125,166.274 229.313,210.844 229.313,211.447 229.313,332.575 404.797,271.559 405.043,271.477 
		581.624,332.575 	"/>
	<path fill="#FEFEFE" d="M296.963,113.398c5.235-0.904,8.716-0.904,11.348,0c1.316,0.439,3.481,2.714,3.481,4.961
		c0,1.371,0.877,4.961,0.877,8.141v100.79c0,2.713,1.754,16.721-14.829,26.67v6.332l52.382-17.187v-7.675
		c-8.305,0-13.102-3.618-13.102-8.58v-56.493c5.674-1.371,9.155-2.275,12.225-2.275c2.631,0,5.674,1.343,7.428,2.714
		c1.316,0.905,3.043,3.152,3.481,4.989c0.438,1.343,1.754,4.961,2.193,7.675l1.754,8.58h3.919v-60.112h-5.235
		c-0.438,4.523-0.877,8.58-0.877,9.484c-0.439,3.18-2.193,6.771-3.043,9.045c-1.315,2.714-4.358,5.866-6.99,7.236
		c-5.235,2.714-10.032,3.619-15.268,5.428v-50.601c0-5.427,0-9.045,5.235-12.198l1.727-0.905c8.744-5.427,18.338-2.248,23.135,0.438
		c5.235,2.275,10.032,13.568,11.787,22.614l0.877,3.618h4.358V77.737l-86.865,30.261v5.427V113.398z M416.584,129.215
		L416.584,129.215c6.112,0,10.909-5.428,10.909-11.759c0-6.332-4.797-11.759-10.909-11.759c-6.552,0-11.349,5.427-11.349,11.759
		C405.235,123.787,410.032,129.215,416.584,129.215z M395.477,154.405L395.477,154.405
		C394.874,151.966,395.258,153.83,395.477,154.405z M416.145,220.492L416.145,220.492c3.509-0.438,8.744-4.057,10.91-6.304
		c3.481-4.058,7.428-11.759,9.594-20.805c-4.386-1.343,1.315,0.466-3.509-0.904c-0.877,3.618-3.043,7.675-3.92,9.484
		c-0.877,1.371-3.069,4.523-4.358,4.961l-1.754,0.438c-1.315-0.438-1.315-7.675-0.877-9.95v-57.398
		c-12.226,5.427-14.391,5.866-27.055,11.759c0.466,2.796,0.438,3.015,0.301,2.604c0.137,0.548,0.329,1.315,0.576,2.385l2.193-0.438
		c1.754-0.466,4.358-0.905,4.797-0.905c2.631-0.466,2.631,3.152,2.631,7.675v41.583c0,4.962-0.877,13.568,3.043,14.911
		C408.717,219.588,412.225,221.397,416.145,220.492L416.145,220.492z M482.945,196.563L482.945,196.563
		c1.315-0.466,2.192-0.466,3.042-0.904c15.269-6.332,26.205-23.957,26.644-41.583v-2.713c0-4.523-0.877-8.58-2.631-12.664
		c-4.358-11.293-16.146-15.377-27.055-13.102c-1.315,0.438-2.632,0.904-3.947,1.343c-13.103,5.427-22.258,19.435-24.45,33.88
		c-1.755,10.854-0.877,26.205,9.155,33.441c5.674,4.057,12.663,4.057,19.215,2.248L482.945,196.563z M482.068,129.215
		L482.068,129.215h0.877c12.664-1.809,15.268,22.586,15.268,30.728c0,12.198-1.315,28.918-14.418,33.002c0,0-0.438,0-0.877,0.438
		c-14.856,3.18-14.856-27.109-14.856-36.155c0-11.293,2.604-24.862,13.979-28.014H482.068z M114.927,166.302L114.927,166.302
		l150.623,51.971l-0.438-103.476l-150.184,51.533V166.302z M411.348,64.169L411.348,64.169l131.847,45.2v113.426L410.91,268.434
		l165.89,57.399V6.798L411.348,64.196V64.169z"/>
	<polygon fill="#0F1E7A" points="229.669,367.305 272.759,367.305 272.759,379.201 245.649,379.201 245.649,389.837 
		263.384,389.837 263.384,401.486 245.649,401.486 245.649,423.908 229.669,423.908 	"/>
	<path fill="#0F1E7A" d="M276.953,367.305h13.87v11.458h-13.87V367.305z M276.953,384.025L276.953,384.025h13.87v39.883h-13.87
		V384.025z"/>
	<path fill="#0F1E7A" d="M297.73,395.758c1.042-2.577,2.495-4.797,4.331-6.688c1.864-1.892,4.057-3.344,6.606-4.386
		s5.345-1.563,8.415-1.563c3.016,0,5.812,0.521,8.388,1.563c2.577,1.042,4.797,2.494,6.634,4.358
		c1.864,1.864,3.289,4.084,4.331,6.634c1.042,2.576,1.563,5.399,1.563,8.47c0,3.069-0.521,5.894-1.563,8.442
		c-1.042,2.549-2.494,4.742-4.331,6.606c-1.864,1.863-4.057,3.316-6.634,4.33c-2.576,1.042-5.372,1.563-8.388,1.563
		c-3.07,0-5.866-0.521-8.415-1.563c-2.549-1.041-4.742-2.494-6.606-4.33c-1.864-1.864-3.289-4.058-4.331-6.606
		c-1.042-2.549-1.562-5.372-1.562-8.442C296.168,401.13,296.688,398.334,297.73,395.758z M312.258,412.752L312.258,412.752
		c0.987,1.919,2.604,2.879,4.824,2.879c2.221,0,3.838-0.96,4.825-2.879c0.987-1.945,1.48-4.879,1.48-8.826s-0.493-6.88-1.48-8.799
		s-2.604-2.851-4.825-2.851c-2.22,0-3.837,0.959-4.824,2.851s-1.48,4.824-1.48,8.799
		C310.778,407.873,311.271,410.807,312.258,412.752z"/>
	<path fill="#0F1E7A" d="M369.821,420.756c0.082-0.959,0.109-1.836,0.109-2.631V367.36h13.815v21.243
		c1.645-1.727,3.289-3.016,4.934-3.838c1.672-0.822,3.536-1.233,5.619-1.233c4.852,0,8.663,1.728,11.43,5.208
		c2.77,3.454,4.167,8.442,4.167,14.912c0,6.688-1.508,11.868-4.522,15.569c-3.016,3.7-7.127,5.536-12.335,5.536
		s-9.347-2.056-12.417-6.167l-2.303,5.317h-8.771C369.656,422.757,369.738,421.716,369.821,420.756L369.821,420.756z
		 M388.679,417.028L388.679,417.028c2.522,0,4.249-1.042,5.181-3.07c0.905-2.056,1.371-5.372,1.371-9.978
		c0-4.166-0.411-7.209-1.179-9.127c-0.795-1.919-2.302-2.906-4.55-2.906c-0.987,0-1.946,0.247-2.823,0.713
		c-0.904,0.466-1.864,1.206-2.905,2.193v15.569C383.773,414.836,385.417,417.028,388.679,417.028z"/>
	<path fill="#0F1E7A" d="M450.628,421.853c0.109,0.686,0.246,1.344,0.438,2.056h-13.732c-0.356-0.904-0.549-2.028-0.549-3.426
		c-3.673,2.878-7.784,4.304-12.335,4.304c-3.316,0-6.003-1.042-8.031-3.125c-2.028-2.084-3.042-4.824-3.042-8.251
		c0-4.66,1.973-8.224,5.92-10.745s9.786-3.81,17.488-3.865v-3.48c0-1.097-0.411-1.946-1.233-2.577
		c-0.822-0.657-1.946-0.959-3.398-0.959c-1.398,0-2.55,0.411-3.509,1.233c-0.933,0.822-1.563,2.001-1.864,3.536l-11.649-2.522
		c1.15-3.563,3.125-6.194,5.948-7.921c2.823-1.7,6.633-2.577,11.457-2.577c6.086,0,10.608,0.96,13.541,2.905
		c2.934,1.946,4.386,4.935,4.386,8.991v24.341c0,0.74,0.056,1.453,0.138,2.11L450.628,421.853z M436.813,405.708L436.813,405.708
		c-6.496,0.411-9.73,2.439-9.73,6.085c0,2.933,1.425,4.386,4.249,4.386c0.986,0,1.918-0.164,2.795-0.493
		c0.878-0.329,1.782-0.822,2.714-1.508v-8.47H436.813z"/>
	<path fill="#0F1E7A" d="M457.426,384.025h13.732v5.784c2.522-2.083,4.88-3.646,7.018-4.715c2.165-1.042,4.413-1.59,6.798-1.59
		c3.755,0,6.441,1.069,7.977,3.234c1.563,2.166,2.33,5.482,2.33,9.978v27.164h-13.815v-23.71c0-2.412-0.219-4.222-0.658-5.373
		c-0.438-1.179-1.507-1.754-3.207-1.754c-0.932,0-1.918,0.274-2.96,0.85c-1.042,0.576-2.192,1.398-3.481,2.494v27.493h-13.732
		v-39.883V384.025z"/><!-- Made for www.totalmoney.sk -->
	<polygon fill="#0F1E7A" points="502.27,367.333 515.865,367.333 515.865,398.663 529.517,384.025 543.331,384.025 530.996,396.882 
		543.194,423.908 527.816,423.908 520.772,407.435 515.865,412.479 515.865,423.908 502.27,423.908 	"/>
	<path fill="#0F1E7A" d="M582.063,421.853c0.11,0.686,0.247,1.344,0.438,2.056h-13.732c-0.356-0.904-0.548-2.028-0.548-3.426
		c-3.674,2.878-7.785,4.304-12.335,4.304c-3.317,0-6.003-1.042-8.031-3.125c-2.029-2.084-3.043-4.824-3.043-8.251
		c0-4.66,1.974-8.224,5.894-10.745c3.947-2.521,9.785-3.81,17.487-3.865v-3.48c0-1.097-0.411-1.946-1.233-2.577
		c-0.822-0.657-1.946-0.959-3.398-0.959c-1.398,0-2.55,0.411-3.509,1.233s-1.563,2.001-1.864,3.536l-11.649-2.522
		c1.151-3.563,3.125-6.194,5.948-7.921c2.823-1.7,6.634-2.577,11.431-2.577c6.112,0,10.607,0.96,13.541,2.905
		c2.933,1.946,4.386,4.935,4.386,8.991v24.341c0,0.74,0.055,1.453,0.137,2.11L582.063,421.853z M568.248,405.708L568.248,405.708
		c-6.497,0.411-9.731,2.439-9.731,6.085c0,2.933,1.426,4.386,4.249,4.386c0.986,0,1.919-0.164,2.796-0.493s1.781-0.822,2.714-1.508
		v-8.47H568.248z"/>
</g>
</svg>
