<svg xmlns="http://www.w3.org/2000/svg" version="1.1" id="Vrstva_2" x="0" y="0" viewBox="0 0 566.9 566.9" preserveAspectRatio="xMidYMid meet" enable-background="new 0 0 566.9 566.9" xml:space="preserve"><path fill="#FE4445" d="M566.9 453.5c0 62.4-51 113.4-113.4 113.4H113.4C51 566.9 0 515.9 0 453.5V113.4C0 51 51 0 113.4 0h340.2c62.4 0 113.4 51 113.4 113.4V453.5z"/><linearGradient id="SVGID_1_" gradientUnits="userSpaceOnUse" x1="184.6" y1="201.6" x2="525.1" y2="542.1"><stop offset="0" stop-color="#DD3B3C"/><stop offset="1" stop-color="#FE4445"/></linearGradient><path fill="url(#SVGID_1_)" d="M566.9 311.6L396.8 141.5l-7 74.1L283.3 119 109.1 277.1l20 19.3 6.7 128.6 141.9 141.9h175.9c62.3 0 113.4-51 113.4-113.3L566.9 311.6z"/><!-- Made for www.totalmoney.sk --><path fill="#FFFFFF" d="M458.9 264.1l-62.4-57.3v-65h-28v39.2l-80-73.5c-3-2.7-7.6-2.7-10.6 0L108.3 264.8c-3.2 2.9-3.3 7.9-0.4 11 1.5 1.7 3.6 2.5 5.7 2.5 1.9 0 3.8-0.7 5.3-2.1l164.4-152.3 165 151.6c3.2 2.9 8.1 2.7 11-0.5C462.3 271.9 462.1 267 458.9 264.1zM128.7 280.5v131.3c0 0 0 13 12.6 13s156.5 0 156.5 0V283.5h85.5v141.4c0 0 29 0 43 0s14.5-13 14.5-13V281.5L283.3 137.2 128.7 280.5zM269.6 368.2h-84.8v-84.8h84.8V368.2z"/></svg>