<svg xmlns="http://www.w3.org/2000/svg" version="1.1" id="Vrstva_2" x="0" y="0" viewBox="0 0 566.9 566.9" preserveAspectRatio="xMidYMid meet" enable-background="new 0 0 566.9 566.9" xml:space="preserve"><path fill="#FE4445" d="M566.9 453.5c0 62.4-51 113.4-113.4 113.4H113.4C51 566.9 0 515.9 0 453.5V113.4C0 51 51 0 113.4 0h340.2c62.4 0 113.4 51 113.4 113.4V453.5z"/><linearGradient id="SVGID_1_" gradientUnits="userSpaceOnUse" x1="138.4" y1="129.7" x2="538" y2="529.3"><stop offset="0" stop-color="#DD3B3C"/><stop offset="1" stop-color="#FE4445"/></linearGradient><path fill="url(#SVGID_1_)" d="M566.9 269L405.1 107.1l-287.2 43.2 25 178.1 16.5 15.9 0.6 96.2 126.4 126.4 167.2 0.1c62.3 0 113.4-51 113.4-113.3L566.9 269z"/><path fill="#FFFFFF" d="M433.9 276.9l-25.1-162.8c-1-6.5-7.1-11.1-13.7-10.1l-270.9 40.9c-6.5 1-11.1 7.1-10.1 13.7l25.1 162.8c1 6.5 7.1 11.1 13.7 10.1l31.6-4.8V321l-28.5 4.3c-6.5 1-10.4-1.9-11.4-8.4L131 229.8l282.8-42.7 13.6 87.1c1 6.5-1.9 10.4-8.4 11.4l-166.6 25.1v5.7l171.3-25.9C430.4 289.6 434.9 283.5 433.9 276.9zM124.6 187.2l-3.9-25.9c-1-6.5 1.9-10.4 8.4-11.4l263.1-39.7c6.5-1 10.4 1.9 11.4 8.4l3.9 25.9L124.6 187.2z"/><!-- Made for www.totalmoney.sk --><path fill="#FFFFFF" d="M441.4 253.3H167.5c-6.6 0-12 5.4-12 12v166.1c0 6.6 5.4 12 12 12h273.9c6.6 0 12-5.4 12-12V265.3C453.4 258.7 448 253.3 441.4 253.3zM210 338.7h-6.7c-6.6 0-12-5.4-12-12v-32.8c0-6.6 5.4-12 12-12h6.7V338.7zM248.1 326.7c0 6.6-5.4 12-12 12h-21.5v-16.1l33.5 0V326.7zM248.1 318l-33.5 0v-15.5l33.5 0V318zM248.1 298l-33.5 0v-16.1h21.5c6.6 0 12 5.4 12 12V298zM394.7 414.8c-9.5 0-18.2-4-24.3-10.4 -6.2 6.6-15 10.7-24.8 10.7 -18.8 0-34-15.2-34-34s15.2-34 34-34c9.8 0 18.6 4.1 24.8 10.7 6.1-6.4 14.8-10.4 24.3-10.4 18.6 0 33.7 15.1 33.7 33.7C428.4 399.7 413.3 414.8 394.7 414.8zM394.7 353.5c-8.1 0-15.4 3.5-20.5 9.1 3.4 5.3 5.5 11.7 5.5 18.5s-2 13.1-5.5 18.5c5.1 5.6 12.4 9.1 20.5 9.1 15.2 0 27.6-12.4 27.6-27.6S409.9 353.5 394.7 353.5z"/></svg>