<svg xmlns="http://www.w3.org/2000/svg" xml:space="preserve" viewBox="0 0 2893 376" preserveAspectRatio="xMidYMid meet" style="image-rendering:optimizeQuality;shape-rendering:geometricPrecision;text-rendering:geometricPrecision"><defs><style type="text/css">
    .fil3 {fill:#3F51B5}
    .fil5 {fill:#424242}
    .fil4 {fill:white}
    .fil1 {fill:#3F51B5;fill-rule:nonzero}
    .fil2 {fill:#424242;fill-rule:nonzero}
    .fil0 {fill:#9E9E9E;fill-rule:nonzero}
   </style></defs><g id="Layer_x0020_1"><metadata id="CorelCorpID_0Corel-Layer"/><path class="fil0" d="M2583.8 266.3c-3.6 0-6.1 0.7-7.6 2.1-1.4 1.4-2.2 3.9-2.1 7.3l0 14.3c0 3.6 0.7 6.1 2.1 7.6 1.5 1.4 4 2.2 7.6 2.1l8.4 0c3.6 0 6.1-0.7 7.6-2.1 1.4-1.5 2.2-4 2.1-7.6l0-14.3c0-3.5-0.7-5.9-2.1-7.3-1.5-1.4-4-2.2-7.6-2.1l-8.4 0zm115.5-18.4c3.1 0.8 5.9 1.5 8.4 2.3 2.5 0.7 4.6 1.6 6.3 2.7 1.7 1.1 3 2.6 4 4.4 0.9 1.8 1.4 4.3 1.4 7.3 0 3.4-0.5 6.1-1.8 8.3-1.2 2.1-3.2 3.8-6 5-2.8 1.1-6.7 1.9-11.5 2.4-4.8 0.5-10.8 0.7-18 0.6-8.6 0-16.7-0.1-24.4-0.3-7.7-0.2-14.7-0.5-20.8-1.1l-1.9 19.5c7.7 1.2 15 2 21.8 2.5 6.9 0.5 12.9 0.9 18.2 1 5.3 0.2 9.4 0.2 12.4 0.2 9.9 0 18.4-0.4 25.6-1.4 7.2-1 13.2-2.8 17.9-5.5 4.7-2.7 8.2-6.5 10.4-11.6 2.3-5 3.4-11.6 3.4-19.7 0-7.6-1.1-13.8-3.2-18.6-2.2-4.8-5.5-8.6-10.1-11.5-4.6-2.9-10.4-5.2-17.5-7l-37.3-9.2c-3.1-0.9-5.8-1.7-8.2-2.4-2.3-0.8-4.3-1.7-5.9-2.8-1.5-1.1-2.7-2.6-3.5-4.5-0.8-1.9-1.2-4.4-1.2-7.6 0-3.6 0.5-6.3 1.5-8.3 1-2 2.8-3.5 5.1-4.3 2.4-0.9 5.5-1.4 9.5-1.7 4-0.2 8.9-0.3 14.7-0.3 8.3 0 16.6 0.2 25 0.5 8.4 0.3 16.8 0.6 25 0.9l2.2-18.9c-5.5-0.9-11.5-1.7-17.9-2.3-6.5-0.6-13-1.2-19.7-1.5-6.6-0.4-12.8-0.6-18.7-0.7-9.2-0.1-17.1 0.4-23.7 1.4-6.6 1.1-12 2.9-16.2 5.6-4.2 2.7-7.3 6.4-9.3 11.3-2 4.8-3 11-3 18.4 0 7.2 0.9 13.2 2.9 18.1 2 4.9 5.1 8.9 9.6 12 4.4 3.2 10.3 5.6 17.5 7.5l36.8 9.2zm119.6-13l43.8 64.9 30.3 0-44.1-62.5c-0.9-1.5-2-3-3.2-4.5-1.2-1.5-2.3-2.8-3.5-4.1-1.2-1.3-2.2-2.2-3-2.8l0-0.5c0.9-0.6 1.8-1.5 3-2.5 1.2-1 2.3-2.2 3.5-3.4 1.2-1.3 2.3-2.5 3.2-3.8l39.8-47.9-30.3 0-39.8 48.2-16.2 0c0.5-3.6 0.9-7.3 1.2-10.9 0.3-3.7 0.4-7.5 0.4-11.5l0-83-26.5 0 0 189.4 26.2 0 0-44.4c0-3.2-0.1-6.6-0.4-10.1-0.3-3.4-0.6-6.9-1-10.5l16.5 0z"/><path class="fil1" d="M1542.6 39.9c-8.6 0-15.6 2.1-20.9 6.3-5.3 4.1-8.7 10.4-10.3 18.9l-17.6 102.8c-0.9 6.4-1.7 12.8-2.4 19.3-0.7 6.5-1.4 12.9-2.1 19.3l-3.4 0c-0.6-6.4-1.1-12.8-1.8-19.3-0.7-6.5-1.4-12.9-2.4-19.3l-18.8-102.8c-1.6-8.4-4.9-14.8-10.2-18.9-5.3-4.2-12.1-6.3-20.6-6.3l-70.1 0c-9.3 0-16.3 2.4-21 7.2-4.6 4.8-7.1 11.8-7.5 20.9l-9 230.7 73.1 0 6.4-198 5.6 0 25.9 132c1.6 8.3 4.9 14.4 10.3 18.6 5.3 4.1 12.3 6.2 20.9 6.2l42 0c8.7 0 15.6-2.1 20.9-6.2 5.3-4.1 8.6-10.3 9.9-18.6l25.5-132 5.6 0 7.9 198 73.1 0-9-230.7c-0.3-9.2-2.8-16.2-7.5-20.9-4.6-4.7-11.6-7.2-21-7.2l-71.6 0zm238.9 66c-19.2-0.1-35.4 1.7-48.8 5.3-13.4 3.6-24.3 9.2-32.5 17-8.3 7.8-14.3 18.1-18.1 30.8-3.8 12.7-5.7 28.1-5.6 46.4-0.1 17.9 1.8 33.2 5.6 45.7 3.8 12.5 9.8 22.6 18.1 30.3 8.3 7.7 19.1 13.3 32.5 16.8 13.4 3.5 29.6 5.3 48.8 5.2 19.1 0.1 35.3-1.7 48.6-5.2 13.3-3.5 24.1-9.1 32.4-16.8 8.3-7.7 14.3-17.8 18.1-30.3 3.8-12.5 5.6-27.8 5.6-45.7 0.1-18.3-1.8-33.7-5.6-46.4-3.8-12.7-9.8-22.9-18.1-30.8-8.3-7.8-19.1-13.4-32.4-17-13.3-3.6-29.6-5.3-48.6-5.3zm0 53.3c4.5-0.1 8.2 0.5 11.1 1.8 2.9 1.2 5.1 3.5 6.8 6.8 1.6 3.3 2.8 8 3.4 14.1 0.7 6.1 1 13.9 0.9 23.5 0.1 9.3-0.3 16.9-0.9 22.8-0.6 5.9-1.8 10.4-3.4 13.6-1.6 3.2-3.9 5.4-6.8 6.6-2.9 1.2-6.6 1.8-11.1 1.7-4.6 0.1-8.3-0.5-11.3-1.7-2.9-1.2-5.3-3.4-6.9-6.6-1.6-3.2-2.8-7.7-3.4-13.6-0.6-5.9-0.9-13.5-0.9-22.8 0-9.6 0.3-17.4 0.9-23.5 0.6-6.1 1.8-10.8 3.4-14.1 1.6-3.3 3.9-5.6 6.9-6.8 2.9-1.3 6.7-1.8 11.3-1.8zm192.4-48l-61.9 0 0 187.5 78.8 0 0-121.9c6.8-2 12.7-3.2 17.5-3.8 4.8-0.5 9.3-0.8 13.3-0.7 4.8-0.1 8.3 0.8 10.4 2.5 2.1 1.8 3.1 4.7 3.1 8.8l0 115.1 78.8 0 0-140.3c-0.1-17.3-4.8-30.4-14.1-39.2-9.4-8.9-23.1-13.3-41.4-13.3-8.4 0-17 1.2-25.8 3.6-8.8 2.4-17.5 6-26.3 10.9-8.7 4.9-17.1 11.1-25.3 18.6l-7.1-27.8zm295.5 111c13.8 0 25.3-0.9 34.7-2.8 9.4-1.9 16.9-4.9 22.5-8.9 5.6-4 9.7-9.1 12.1-15.4 2.4-6.3 3.6-13.8 3.4-22.4-0.1-11-1.9-20.6-5.5-28.9-3.6-8.3-9.3-15.3-16.9-20.9-7.8-5.6-17.8-9.9-30.1-12.7-12.4-2.8-27.4-4.3-44.9-4.3-19.4-0.1-35.8 1.7-49.4 5.3-13.6 3.6-24.6 9.3-33 17.3-8.4 7.9-14.5 18.3-18.4 31.1-3.9 12.8-5.8 28.4-5.8 46.9-0.1 15.9 1.8 29.9 5.7 42 3.8 12.1 9.9 22.2 18.4 30.3 8.4 8.1 19.4 14.3 33.1 18.4 13.6 4.1 30.2 6.1 49.8 6.1 11.3 0.1 22.3-0.4 32.9-1.5 10.6-1 20.9-2.7 30.8-5.3 9.9-2.6 19.3-6.1 28.1-10.5l-7.1-47.3c-10.8 1.1-21.1 2-30.8 2.6-9.6 0.6-18.4 1-26.1 1.2-7.8 0.3-14.2 0.3-19.3 0.3-6.6 0.1-12-0.6-16.3-1.9-4.3-1.3-7.5-3.5-9.9-6.5-2.4-3.1-4.1-7.1-5-12.2l46.9 0zm-48.4-37.1c0.3-6.3 0.9-11.4 1.8-15.3 1-3.9 2.4-6.8 4.4-8.7 1.9-1.9 4.5-3.2 7.8-3.9 3.2-0.6 7.2-0.8 11.9-0.7 4.7-0.1 8.6 0.3 11.5 1 2.9 0.8 5.1 2.1 6.4 4.2 1.4 2.1 2 5.1 2 9.1 0.1 4.2-0.4 7.3-1.3 9.4-0.9 2.1-2.8 3.4-5.6 4-2.8 0.6-7 0.9-12.6 0.9l-26.3 0zm352.9-73.9l-83.6 0-22.1 103.5c-0.6 3.2-1.3 6.8-2.1 10.8-0.8 3.9-1.7 8.1-2.6 12.3-0.9 4.3-2 8.3-3.1 12.3l-3.4 0c-0.8-5.8-1.5-11.7-2.3-17.6-0.8-5.9-1.6-11.8-2.6-17.6l-22.1-103.5-83.6 0 55.5 169.1c1.7 5.7 4.8 10.1 9.1 13.4 4.4 3.2 9.6 4.9 15.6 5l12.8 0c-3.3 5.7-7.5 10.6-12.4 14.5-5 3.9-10.9 7.3-18 10-7 2.7-15.2 5.1-24.7 7l5.3 42.4c12.9 2.7 24.7 3.6 35.3 2.7 10.6-0.9 20.2-3.1 28.8-6.8 8.5-3.6 16.1-8.3 22.7-13.9 6.6-5.6 12.4-11.8 17.3-18.7 4.9-6.8 9.1-13.9 12.5-21.2 3.4-7.3 6.2-14.4 8.3-21.3l59.6-182.3z"/><!-- Made for www.totalmoney.sk --><path class="fil2" d="M583.2 100.7l0-60.8-226.2 0 0 60.8 72.4 0 0 198 81.4 0 0-198 72.4 0zm85.5 5.3c-19.2-0.1-35.4 1.7-48.8 5.3-13.4 3.6-24.3 9.2-32.5 17-8.3 7.8-14.3 18.1-18.1 30.8-3.8 12.7-5.7 28.1-5.6 46.4-0.1 17.9 1.8 33.2 5.6 45.7 3.8 12.5 9.8 22.6 18.1 30.3 8.3 7.7 19.1 13.3 32.5 16.8 13.4 3.5 29.6 5.3 48.8 5.2 19.1 0.1 35.3-1.7 48.6-5.2 13.3-3.5 24.1-9.1 32.4-16.8 8.3-7.7 14.3-17.8 18.1-30.3 3.8-12.5 5.6-27.8 5.6-45.7 0.1-18.3-1.8-33.7-5.6-46.4-3.8-12.7-9.8-22.9-18.1-30.8-8.3-7.8-19.1-13.4-32.4-17-13.3-3.6-29.6-5.3-48.6-5.3zm0 53.3c4.5-0.1 8.2 0.5 11.1 1.8 2.9 1.2 5.1 3.5 6.8 6.8 1.6 3.3 2.8 8 3.4 14.1 0.7 6.1 1 13.9 0.9 23.5 0.1 9.3-0.3 16.9-0.9 22.8-0.6 5.9-1.8 10.4-3.4 13.6-1.6 3.2-3.9 5.4-6.8 6.6-2.9 1.2-6.6 1.8-11.1 1.7-4.6 0.1-8.3-0.5-11.3-1.7-2.9-1.2-5.3-3.4-6.9-6.6-1.6-3.2-2.8-7.7-3.4-13.6-0.6-5.9-0.9-13.5-0.9-22.8 0-9.6 0.3-17.4 0.9-23.5 0.6-6.1 1.8-10.8 3.4-14.1 1.6-3.3 3.9-5.6 6.9-6.8 2.9-1.3 6.7-1.8 11.3-1.8zm227.3-0.8l45.4 0 0-47.3-45.4 0 0-49.1-79.1 0 0 49.5-31.5 1.5 0 45.4 31.9 0 0 93c0.1 11.1 2.5 20.4 7.4 28.3 4.9 7.8 11.8 13.8 20.6 18 8.9 4.1 19.4 6.2 31.6 6.3 4.5 0 9.5-0.2 15.1-0.6 5.6-0.4 11.4-1 17.3-1.8 5.9-0.8 11.6-1.7 17-3 5.4-1.2 10.2-2.7 14.3-4.4l-8.6-50.3-19.9 0c-5.8 0.1-9.9-1-12.4-3.1-2.5-2.1-3.8-5.6-3.7-10.4l0-72zm75 6.8c10.7-0.5 20.9-0.9 30.8-1.2 9.9-0.3 19.1-0.4 27.6-0.6 8.5-0.1 16-0.1 22.6-0.1 5.4 0 9.8 0.6 13 1.9 3.2 1.3 5.5 3.4 6.9 6.1 1.4 2.7 2.2 6.3 2.3 10.7l0 1.5-58.5 0c-12.8 0.1-23.8 2-33.1 5.9-9.2 3.9-16.3 9.4-21.3 16.6-5 7.2-7.5 15.8-7.6 25.9l0 18.8c0.1 8.8 1.8 16.6 5.2 23.2 3.4 6.6 8.1 12.2 14 16.6 5.9 4.5 12.8 7.8 20.5 10.1 7.8 2.3 16 3.4 24.8 3.4 10.6-0.1 20-1.6 28.1-4.6 8.2-3 15.3-6.9 21.4-11.6 6-4.8 11.2-9.9 15.4-15.3l7.1 26.3 62.6 0 0-116.3c0-14.6-1.8-26.8-5.4-36.6-3.6-9.9-8.9-17.7-15.9-23.6-6.9-5.9-15.6-10.1-25.8-12.6-10.2-2.6-21.9-3.8-35.1-3.8-5.8 0-12.2 0.2-19.3 0.5-7.1 0.3-14.6 0.7-22.4 1.3-7.8 0.6-15.6 1.2-23.4 2-7.8 0.8-15.3 1.6-22.4 2.6-7.1 0.9-13.6 1.9-19.3 3l7.1 49.9zm59.3 67.9c0-3.4 1.2-6.3 3.6-8.4 2.4-2.1 5.9-3.2 10.6-3.3l29.6 0 0 19.9c-4.8 2.9-9.5 5.1-14.3 6.8-4.9 1.7-9.4 2.5-13.8 2.6-5.3-0.1-9.2-1.1-11.8-3.3-2.6-2.1-3.9-4.9-3.9-8.4l0-6zm231.8-196.9l-78.4 0 0 215.3c0.1 11.1 2.6 20.4 7.7 28.3 5.1 7.8 12.3 13.8 21.8 17.9 9.4 4.2 20.8 6.3 33.9 6.3 3.8 0 8.1-0.2 13.2-0.6 5.1-0.4 10.3-1 15.6-1.8 5.4-0.8 10.4-1.7 15-3 4.6-1.2 8.4-2.7 11.3-4.4l-8.6-50.3-12.8 0c-6.4 0.1-11.1-1-14.2-3.1-3.1-2.1-4.6-5.6-4.6-10.4l0-194.3z"/><path class="fil3" d="M199.2 358.1c-17.3 11.9-35.1 17.9-52.9 17.9l-0.1 0c-2.2 0-4.5-0.1-6.7-0.3-0.4 0-0.8-0.1-1.1-0.1l-0.2 0c-16.3-1.6-32.4-8.2-48.2-19.7 1.9-4.4 3.8-9.4 5.6-14.9 2.5-7.7 4.9-16.5 7.2-26.5l0.1-0.2c0.6-2.4 1.1-5 1.7-7.7 0.5-2.6 1.1-5.1 1.5-7.7 0.4-2.2 0.9-4.8 1.4-7.7 0.6-3.6 1.1-6.4 1.4-8.5 1.4-8.8 2.7-18.1 3.8-27.8 1.1-9.7 2-19.5 2.8-29.5l0.5-6.7c-4-0.7-8.1-1.6-12.1-2.6-2.4 30.1-6.5 59.2-12.3 84.2-7.6 32.7-25.4 74-26.3 61.5-1-14.6-6.7-46-17.5-63.5-10.8-17.5-22.4-49.7-22.6-73.4-0.1-9.3 3.5-29 11.7-42.8-13.8-13.7-22.9-31.1-24.7-52.3-3.5-42 38.7-100.9-12.2-129.9 55 3.1 93.7 23.4 144.6 25.5 50.9-2.1 89.5-22.4 144.6-25.5-50.9 28.9-8.7 87.9-12.2 129.9-1.8 21.2-10.9 38.6-24.7 52.3 8.2 13.8 11.8 33.5 11.7 42.8-0.1 23.7-11.8 55.9-22.6 73.4-10.8 17.5-16.5 48.9-17.5 63.5-0.9 12.5-18.7-28.9-26.3-61.5-5.7-24.8-9.8-53.5-12.2-83.4-4.4 1-8.7 1.8-13.1 2.5l0.4 5.9c0.7 10 1.7 19.8 2.8 29.5 1.1 9.7 2.4 19 3.8 27.8 0.3 2.1 0.8 4.9 1.4 8.5 0.5 3 1 5.6 1.4 7.7 0.5 2.6 1 5.2 1.5 7.7 0.6 2.7 1.1 5.2 1.7 7.7l0 0 0 0.2 0 0c2.4 10.4 5 19.7 7.6 27.7 2 5.9 4 11.2 6.1 15.8z"/><path class="fil4" d="M188.1 41.8c-27.7 7.8-43.2 36.1-34.6 63.1 8.6 27 38 42.6 65.6 34.8 27.7-7.8 43.2-36.1 34.6-63.1-8.6-27-38-42.6-65.6-34.8z"/><path class="fil4" d="M101.6 41.8c28.7 7.8 44.8 36.1 35.9 63.1-8.9 27-39.4 42.6-68.1 34.8-28.7-7.8-44.8-36.1-35.9-63.1 8.9-27 39.4-42.6 68.1-34.8z"/><path class="fil4" d="M169.4 163.6c0-0.3 0-0.7 0-1 0-10.3-11.1-18.7-24.8-18.7-13.7 0-24.8 8.4-24.8 18.7 0 0.3 0 0.7 0 1 6.4 1 13.4 6 19 14.5 2.4 3.7 4.4 7.7 5.8 11.8 1.4-4.1 3.4-8.1 5.8-11.8 5.6-8.4 12.6-13.5 19-14.5z"/><path class="fil5" d="M196.7 68.5c-12.4 3.5-19.4 16.4-15.5 28.7 3.8 12.3 17.1 19.4 29.5 15.8 10.2-2.9 16.7-12.1 16.6-22.1-3.3-1.8-8.1-3.4-14.1-4.6-3.8-0.7-7.7-1.2-11.6-1.4 0.2-0.1 0.5-0.2 0.7-0.3 2.5-0.2 5-0.6 7.5-1.1 5.9-1.1 10.7-2.7 14-4.5-5.5-8.9-16.6-13.6-27.1-10.6z"/><path class="fil5" d="M92.5 68.5c5.9 1.7 10.6 5.5 13.5 10.4-3.3 1.9-8.2 3.5-14.3 4.7-2.5 0.5-5 0.8-7.5 1.1-0.2 0.1-0.5 0.2-0.7 0.3 3.8 0.2 7.8 0.7 11.6 1.4 6 1.1 10.8 2.7 14.1 4.6 0 2.1-0.4 4.2-1 6.3-3.8 12.3-17.1 19.4-29.5 15.8-12.4-3.5-19.4-16.4-15.5-28.7 3.8-12.3 17.1-19.4 29.5-15.8z"/></g></svg>