<svg xmlns="http://www.w3.org/2000/svg" xml:space="preserve" viewBox="0 0 2441 940" preserveAspectRatio="xMidYMid meet" style="clip-rule:evenodd;fill-rule:evenodd;image-rendering:optimizeQuality;shape-rendering:geometricPrecision;text-rendering:geometricPrecision"><defs><style type="text/css">
    .fil1 {fill:#099B49}
    .fil5 {fill:#14120F}
    .fil2 {fill:#1E6FB6}
    .fil3 {fill:#C92027}
    .fil0 {fill:#DE2026}
    .fil4 {fill:#EF8F21}
    .fil7 {fill:white}
    .fil6 {fill:black;fill-rule:nonzero;fill-opacity:0.600000}
   </style></defs><g id="Layer_x0020_1"><metadata id="CorelCorpID_0Corel-Layer"/><g id="Layer_2"/><rect class="fil0" width="688.3" height="939.8"/><rect class="fil1" x="1846.6" width="594.4" height="939.8"/><rect class="fil2" x="1775.9" width="70.7" height="939.8"/><rect class="fil3" x="1372.2" width="403.7" height="939.8"/><rect class="fil4" x="785.4" width="586.8" height="939.8"/><rect class="fil5" x="688.3" width="97.1" height="939.8"/><path class="fil6" d="M2204.5 641.7l-2.1 42.2-0.4 8-6.4 4.7c-7.6 5.5-16.6 9.7-26.9 12.5-9.6 2.6-20.4 4.1-32.4 4.3l0 0c-19.6 0.5-36.8-3.9-51.7-13.3-14.6-9.2-26.5-22.8-35.7-40.9l-52.9-88.1-3.9 0 0 122 0 16.7-16.7 0-84.9 0-16.7 0 0-16.7 0-361-20.2 0-16.7 0 0-16.7 0-60.6 0-16.7 16.7 0 121.7 0 16.7 0 0 16.7 0 220.6 8 0 58.2-101.5 4.8-8.4 9.6 0 84.3 0 28.9 0-14.5 25-75.6 130.1 56.1 93.4 0.4 0.7c2.1 3.9 4.2 6.6 6.3 8.1l0 0c1.2 0.9 2.5 1.3 3.9 1.2l0 0c3-0.1 5.9-0.6 8.7-1.5 2.8-0.9 5.4-2.2 7.8-3.8l8.8 13.2 0.4 0 0.6 0 11.2-11.2 0 0 5.2 5.2-0.3 6.1 0 0.5 0 8.8-0.5 0.3zm-1426-22.5c0 0-4.7 0.7-2.8 0.8l0.3 0c1.2 0 3.4-1 6-2.4 4-2.2 7.9-5.2 11.2-7.9l29.7-24.8-2.5 38.6-3.4 51.9-0.3 5.2-3.2 4c-6.2 7.8-14.8 15-26.8 20.2-11.1 4.8-25.1 7.8-42.4 7.8-86.2 0-84.7-76-84-87.6l0 0 0-120.4 0.1-1.1c0.5-7.9 0.2-14.8-1.1-20.8-1.1-5.1-2.8-9.5-5.1-13.2-2.6-3-5.7-5.3-9.4-6.9-4.4-1.9-9.7-3-15.9-3.1-6.7 0.2-12.4 1.4-17.2 3.5-4.3 1.9-7.8 4.8-10.7 8.6-3.2 4.3-5.7 9.7-7.3 16.3-1.9 7.5-2.7 16.3-2.5 26.5l0.1 0.3 0 177.3 0 16.6-16.7 0-84.9 0-16.7 0 0-16.6 0-187.3 0.1-1.1c0.5-7.9 0.2-14.8-1.1-20.8-1.1-5.1-2.8-9.5-5.1-13.2-2.6-3-5.7-5.3-9.4-6.9-4.4-1.9-9.7-3-15.9-3.1-6.6 0.2-12.4 1.4-17.2 3.5-4.3 2-7.9 4.8-10.8 8.6l0 0c-3.2 4.3-5.7 9.7-7.3 16.3-1.9 7.5-2.7 16.3-2.5 26.5l0.1 0.3 0 177.3 0 16.6-16.7 0-84.9 0-16.7 0 0-16.6 0-230.6-20.2 0-16.7 0 0-16.7 0-61.2 0-16.7 16.7 0 87.4 0 11.4 0 4.1 10.7 5.6 14.6c7.4-6.4 15.7-11.8 25.1-16.3 18.2-8.6 40.2-13.5 66-14.7l0.3 0c22.9-0.7 43.3 3 61.2 11.2 12.1 5.5 23 13 32.5 22.5 8.7-8.2 18.9-14.9 30.6-20.1 17.6-7.9 38.5-12.5 62.7-13.6l0.9 0c23.6 0.2 43.9 4 61.1 11.4 18 7.8 32.5 19.4 43.5 34.8l0 0c7.3 9.9 12.7 22.2 16.1 36.8 3.2 13.6 4.7 29.6 4.5 47.8l0.1 0 0 125.7-0.1 1.4zm306 78.9c-8.3 2.6-17.3 4.7-26.7 6.3-18.5 3.2-39.4 4.5-62.7 4.1l0 0.1-148.6 0-16.7 0 0-16.7 0-322.9-22 0-16.7 0 0-16.7 0-64.3 0-16.7 16.7 0 182.9 0 0 0.1c27.8-0.6 51.8 1.7 71.9 6.9 21.5 5.6 38.8 14.6 51.9 26.9l0 0c11.7 10.6 20.6 23 26.7 37.3 6 14.1 9.3 29.9 9.7 47.5l0 1c-1 23.2-6.7 43-17.3 59.4l0 0c-4.5 7-9.8 13.3-16 18.9 13.9 7.2 25.4 16.5 34.4 28 15.3 19.5 23.1 44.6 23.3 75.2 0.2 26.9-5.2 50.1-16.2 69.5-11.2 19.8-28 35.3-50.4 46.6l-24.2 12.2 0-2.7zm-66.2-321c-2.4-2.4-6.6-4.3-12.6-5.8-7.7-1.9-17.6-2.7-29.8-2.5l-0.2 0-22.7 0 0 71.6 25.1 0 0.3 0.1c11.2 0.2 20.5-0.7 27.9-2.6 6-1.6 10.5-3.7 13.4-6.5l0.3-0.3c2.4-2.2 4.3-5.2 5.5-9.1 1.6-4.9 2.4-11 2.2-18.3l0-0.7c0.2-5.5-0.6-10.5-2.2-14.8-1.5-4.1-3.9-7.7-7.1-11l-0.1-0.1zm28.8 191.1c0-8.2-0.9-15-2.8-20.3-1.5-4.4-3.7-7.9-6.5-10.3l-0.8-0.7c-3.2-3.2-8.5-5.8-15.8-7.6-8.9-2.3-20.1-3.3-33.5-3.1l-0.2 0.1-34.5 0 0 84.7 33.9 0 0.8 0c4.3 0.2 8.3 0.3 12 0.1 16.6-0.5 28.7-3.9 36.3-10.2 6.8-5.6 10.5-14.3 11-26.3 0.1-2 0.1-3.9 0.1-5.9l-0.1-0.5zm461.5 124.1c-8.6 6.1-18.6 10.7-29.8 14-10.7 3-22.6 4.8-36 5.3l-0.6 0.1c-17 0-31.5-3.6-43.3-10.9-5.8-3.5-10.8-7.9-15.2-13-7.7 6-16.3 11-25.7 14.9-16 6.7-34.5 10.3-55.4 10.8l-0.5 0c-18.4-0.2-35.1-2.8-50-7.9-15.4-5.2-29-12.9-40.6-23.1l-0.3-0.3c-11.7-10.7-20.5-23.6-26.5-38.6-5.7-14.5-8.7-31-8.9-49.6l0-0.4c0.2-19.1 3.5-36.1 9.9-51 6.6-15.4 16.3-28.4 29.2-39.1l0.2-0.1c12.5-10.1 27.2-17.7 43.9-22.7 16.3-4.8 34.5-7.3 54.5-7.3l0.3 0.1c13 0.2 25.2 1.2 36.6 3 3.3 0.5 6.6 1.1 9.8 1.8-0.3-2.6-0.8-5-1.4-7.2-1.3-4.7-3.1-8.5-5.6-11.4-3-3.1-7.5-5.5-13.4-7.3-7.3-2.2-16.5-3.5-27.5-3.7l0 0.1c-14.4 0-28.6 1.7-42.6 5.1-14.2 3.4-28.3 8.7-42.4 15.6l-24 11.8 0-26.8 0-56.8 0-10.8 10-4.4c16.3-7.2 34-12.6 52.8-16.2 18.5-3.6 38.5-5.5 59.8-5.7 26.3-0.2 49.3 2.6 68.9 8.5 20.5 6.1 37.6 15.6 51.2 28.5l0 0c11.4 10.6 19.8 23.8 25.3 39.5 5.2 14.9 7.7 32 7.5 51.3l0.1 0 0 130.5 0 1.8c2.4-0.3 4.6-0.9 6.6-1.5 2.8-0.9 5.4-2.1 7.7-3.6l27.7-17.9-2.1 32.9-2.6 41.8 8.7 8.7-16.2 11.4zm-148-104.1l0-0.6 0-28.3c-1.9-0.4-3.8-0.8-5.9-1.2-6.4-1.1-13.5-1.7-21.1-2-14.6 1-25.1 4.4-31.5 10.2-5.5 5-8.2 12.6-8.2 23l0 0c0.6 12.4 3.6 21.4 8.9 26.8 5 5.1 12.8 7.7 23.7 7.9 6-0.2 11.3-1.1 15.8-2.8 3.9-1.5 7.2-3.6 9.8-6.4 2.7-2.8 4.7-6.2 6.1-10.3 1.6-4.6 2.4-10 2.4-16.3zm482.3-96.8l0 200.4 0 16.7-16.7 0-84.9 0-16.7 0 0-16.7 0-187.3 0.1-0.7c0.3-8.2-0.1-15.3-1.5-21.4-1.1-5.2-2.9-9.5-5.3-13.1-2.3-2.9-5.5-5.2-9.4-6.8-4.7-2-10.6-3.1-17.5-3.3-7.9 0.4-14.5 1.7-19.8 4.1-4.5 2-8.1 4.8-10.7 8.4l-0.1 0.1c-3.5 4.7-6 10.4-7.7 17.1-1.8 7.5-2.6 16.2-2.2 26.1l0.1 0.6 0 176.1 0 16.7-16.7 0-84.9 0-16.7 0 0-16.7 0-230.6-20.2 0-16.7 0 0-16.6 0-61.2 0-16.7 16.7 0 87.4 0 11.4 0 4.1 10.7 5.9 15.4c8.2-7.1 17.4-13 27.6-17.7l0 0c18.5-8.6 40.4-13.3 65.5-14l0.4-0.1c20.3 0 38.5 2.9 54.6 8.7 16.6 6 30.7 15 42.3 27l0.3 0.3c11.2 12.2 19.4 26.4 24.6 42.6 2.2 6.9 3.9 14.1 5 21.7l1.6-1.1 0 20.4c0.1 3 0.1 6 0 9l0 1.7z"/><!-- Made for www.totalmoney.sk --><path class="fil7" d="M2181.2 625.5l-2.5 50.6c-12.1 8.7-28.7 13.3-49.9 13.7-32.5 0.8-56.6-14.4-72.4-45.6l-58.1-96.8-30 0 0 138.6-84.9 0 0-377.7-36.8 0 0-60.6 121.7 0 0 237.2 34.3 0 63-109.9 84.3 0-80.5 138.6 61.2 101.8c6.7 12.5 15.2 18.5 25.6 18.1 9.1-0.4 17.5-3.1 25-8.1l0-0.6 0 0.6 0 0zm-1412.3 4.1c-16 0-14.1-18.9-14.1-18.9l0-125.7c0.4-33.7-5.4-58.7-17.5-74.9-18.3-25.8-48.7-38.9-91.1-39.3-44.1 2.1-75.5 16.2-94.3 42.4-21.2-29.5-52.2-43.7-93-42.4-47 2.1-79.5 17.5-97.4 46.2l-15.6-40.6-87.4 0 0 61.2 36.8 0 0 247.2 84.9 0 0-177.3c-0.4-23.3 4-41 13.1-53.1 9.1-12.1 22.9-18.3 41.2-18.7 17.1 0.4 30 6 38.7 16.9 7.5 11.2 10.6 26.2 9.4 45l0 187.3 84.9 0 0-177.3c-0.4-23.3 4-41 13.1-53.1 9.1-12.1 22.9-18.3 41.2-18.7 17.1 0.4 30 6 38.7 16.9 7.5 11.2 10.6 26.2 9.4 45l0 120.4c0 0-7.5 71 67.3 71 0 0 0 0 0 0 30.1 0 46.8-9.9 56.1-21.7l3.4-51.9c-8.2 6.8-19.1 14.3-27.8 14.3l0 0zm325.2 37.1c-26.2 12.9-61.6 18.9-106.1 18.1l-148.6 0 0-339.6-38.7 0 0-64.3 182.9 0c52.9-1.3 90.3 8.5 112.4 29.3 20 17.9 30.4 42.3 31.2 73-1.7 40.4-19.6 68-53.7 83 51.6 12.5 77.6 45.6 78 99.3 0.4 47.9-18.7 81.6-57.4 101.1l0 0zm-71.2-308.4c-9.2-9.1-27.3-13.5-54.3-13.1l-39.3 0 0 104.9 41.8 0c25.4 0.4 43.1-4.2 53.1-13.7 9.1-8.3 13.5-21.6 13.1-40 0.4-15.4-4.4-28.1-14.4-38.1l0 0zm33.7 202.9c0-20-5-34.3-15-43.1-10.8-10.8-31.2-16-61.2-15.6l-51.2 0 0 118 50.6 0c52.4 2.5 78-17.3 76.8-59.3l0-0.6 0 0.6zm435.2 110.5c-14.1 10-33.1 15.4-56.8 16.2-27.9 0-46.2-11.2-54.9-33.7-19.1 22.9-47.4 34.7-84.9 35.6-33.3-0.4-59.9-9.4-79.9-26.8-19.6-17.9-29.6-43.3-30-76.2 0.4-33.7 11.4-59.5 33.1-77.4 21.6-17.5 51-26.2 88-26.2 24.6 0.4 45.8 3.7 63.7 10l0-8.1c0.8-19.1-3.1-33.7-11.9-43.7-10-10.4-27.7-15.8-53.1-16.2-31.2 0-62 7.5-92.4 22.5l0-56.8c30.4-13.3 65.8-20.2 106.1-20.6 49.1-0.4 85.3 10.4 108.6 32.5 18.7 17.5 27.9 43.7 27.5 78.7l0 130.5c0 12.5 5 18.7 15 18.7 9.6-0.8 17.9-3.5 25-8.1l-3.1 49.3 0 0zm-121.7-90.5l0-41.2c-11.7-4.6-26.4-7.1-44.3-7.5-37.5 2.5-56 19.4-55.6 50.6 1.6 33.3 18.1 50.2 49.3 50.6 16.2-0.4 28.7-5.2 37.5-14.4 8.7-9.2 13.1-21.9 13.1-38.1l0-0.6 0 0.6zm448.9-96.8l0 200.4-84.9 0 0-187.3c0.8-19.1-2.5-34.1-10-45-8.3-10.8-21.9-16.4-40.6-16.9-20.4 0.8-35 7.3-43.7 19.3-9.6 12.9-14 30.8-13.1 53.7l0 176.1-84.9 0 0-247.2-36.8 0 0-61.2 87.4 0 15.6 40.6c20.8-29.5 53.9-45 99.3-46.2 37 0 65.3 10.2 84.9 30.6 19.1 20.8 28.1 48.5 26.8 83.1l0-0.6 0 0.6 0 0z"/></g></svg>