<svg xmlns="http://www.w3.org/2000/svg" xml:space="preserve" viewBox="0 0 2734 464" preserveAspectRatio="xMidYMid meet" style="image-rendering:optimizeQuality;shape-rendering:geometricPrecision;text-rendering:geometricPrecision"><defs><style type="text/css">
    .fil0 {fill:#F3423D}
    .fil1 {fill:#F3423D;fill-rule:nonzero}
   </style></defs><!-- Made for www.totalmoney.sk --><path class="fil0" d="M443.6 236.8c0-129.9-95.6-215.5-220.5-215.5-129.3 0-223 99.3-223 228.7 0 128.7 87.5 213.7 216.2 213.7 129.9 0 227.4-91.8 227.4-226.8l0 0zm-93.7 7.5c0 92.5-58.7 138.7-128.7 138.7-65.6 0-128.1-47.5-128.1-139.3 0-88.1 59.4-138.7 128.1-138.7 73.1 0 128.7 50 128.7 139.3z"/><path class="fil0" d="M802.8 296.1c0-116.2-68.7-143.1-117.5-143.1-61.2 0-87.5 35.6-87.5 35.6l0-188.7-87.5 0 0 428c0 0 43.7 33.7 131.8 33.7 88.7 0 160.6-60.6 160.6-165.6zm-88.7 11.9c0 55.6-30.6 87.5-68.7 87.5-27.5 0-47.5-13.1-47.5-13.1l0-123.7c0 0 18.7-28.7 55.6-28.7 28.7 0 60.6 23.7 60.6 78.1z"/><path class="fil0" d="M1124 321.1c0-88.1-26.9-169.9-136.8-169.9-91.8 0-144.3 63.7-144.3 149.9 0 98.1 50 160.6 149.3 160.6 77.5 0 127.4-46.9 127.4-46.9l-34.4-56.2c0 0-35 33.1-86.2 33.1-69.3 0-74.3-70.6-74.3-70.6l199.3 0zm-86.8-57.5l-110.6 0c0 0 3.7-50 56.9-50 56.2 0 53.7 50 53.7 50z"/><path class="fil1" d="M1385.8 163.1c0 0-17.5-11.9-45.6-11.9-60 0-73.1 59.4-73.1 59.4l0-51.2-87.5 0 0 294.9 87.5 0 0-159.9c0-54.3 31.2-63.1 55-63.1 23.7 0 40.6 11.2 40.6 11.2l23.1-79.3z"/><path class="fil0" d="M1718.7 296.1c0-116.2-68.7-143.1-117.4-143.1-61.2 0-87.5 35.6-87.5 35.6l0-188.7-87.5 0 0 428c0 0 43.7 33.7 131.8 33.7 88.7 0 160.6-60.6 160.6-165.6zm-88.7 11.9c0 55.6-30.6 87.5-68.7 87.5-27.5 0-47.5-13.1-47.5-13.1l0-123.7c0 0 18.7-28.7 55.6-28.7 28.7 0 60.6 23.7 60.6 78.1z"/><path class="fil0" d="M2009.3 454.2l0-201.8c0-90.6-81.2-101.2-120-101.2-81.2 0-126.2 41.2-126.2 41.2l25 63.7c0 0 36.9-35.6 82.5-35.6 58.1 0 56.9 36.9 56.9 55.6-76.2 0-169.3 11.9-169.3 100 0 58.7 42.5 85.6 93.7 85.6 51.9 0 73.7-44.4 76.2-54.4l0 46.9 81.2 0 0 0zm-81.2-98.7c0 33.7-30.6 46.2-51.2 46.2-15 0-38.1-4.4-38.1-35.6 0-40.6 58.1-40 89.3-40l0 29.4 0 0z"/><path class="fil1" d="M2364.1 454.2l0-208.7c0-55-38.1-94.3-101.2-94.3-76.2 0-92.5 51.8-92.5 51.8l0-43.7-87.5 0 0 294.9 87.5 0 0-176.8c0-36.2 30.6-53.7 55-53.7 47.5 0 51.9 33.7 51.9 66.2l0 164.3 86.8 0 0 0z"/><polygon class="fil1" points="2734 454.2 2621.5 290.5 2730.3 159.3 2629 159.3 2525.3 288 2525.3 0 2437.9 0 2437.9 454.2 2525.3 454.2 2525.3 295.5 2629 454.2 "/></svg>