<svg xmlns="http://www.w3.org/2000/svg" version="1.1" id="Vrstva_2" x="0" y="0" viewBox="0 0 566.9 566.9" preserveAspectRatio="xMidYMid meet" enable-background="new 0 0 566.9 566.9" xml:space="preserve"><path fill="#FE4445" d="M566.9 453.5c0 62.4-51 113.4-113.4 113.4H113.4C51 566.9 0 515.9 0 453.5V113.4C0 51 51 0 113.4 0h340.2c62.4 0 113.4 51 113.4 113.4V453.5z"/><linearGradient id="SVGID_1_" gradientUnits="userSpaceOnUse" x1="178.5" y1="185.2" x2="530.3" y2="537"><stop offset="0" stop-color="#DD3B3C"/><stop offset="1" stop-color="#FE4445"/></linearGradient><path fill="url(#SVGID_1_)" d="M566.9 374.8L307.1 115.7l-18.7-11 -14.7 56.7 -45.5 83.5 -55-54.5 -7 45.8 -12.5 65.7 58.1 61.4 -0.4 50.9 3 5.8 147.8 147h91.2c62.3 0 113.3-51 113.4-113.3L566.9 374.8z"/><!-- Made for www.totalmoney.sk --><path fill="#FFFFFF" d="M287.7 387.6c-37.6 0-65.1-7.2-75.9-13.8 0 10.8-0.2 40.5-0.2 40.8 0 10.1 34.1 18.3 76.1 18.3 42 0 76.1-8.2 76.1-18.3 0-0.6-0.3-28.5-0.4-40.3C357.2 379.1 320.6 387.6 287.7 387.6zM404.1 296.8c0 0 3.4-58.8-31-98.8 0 0 4.3 45.5-25 71.2 0 0 29.7-104.2-65.7-175.5 0 0 3.3 40.7-30 79.3 -25.3 29.3-45.3 61.6-40 104.3 0 0-21.5-10-23.8-43.7 0 0-2.5-31.5-17.5-45 0 0-0.7 15.3-12.7 42.7 -21.3 41.3-15.8 118.3 80.2 141.8 0 0-90.2-44.5-60.2-123.8 0 0 16.7 45.3 51.3 50 0 0-12.6-43 18.7-79.7 19.7-23.1 51.3-46.7 49.3-92.7 0 0 50 37 34.7 134.7 0 0-4.7 31.3-35.3 52 16.7 2 65.3-16.7 86-57 0 0 20 75.4-42.5 115.5C340.6 372.2 403.2 352.5 404.1 296.8z"/></svg>