<svg xmlns="http://www.w3.org/2000/svg" version="1.1" id="Vrstva_2" x="0" y="0" viewBox="0 0 566.9 566.9" preserveAspectRatio="xMidYMid meet" enable-background="new 0 0 566.9 566.9" xml:space="preserve"><path fill="#FE4445" d="M566.9 453.5c0 62.4-51 113.4-113.4 113.4H113.4C51 566.9 0 515.9 0 453.5V113.4C0 51 51 0 113.4 0h340.2c62.4 0 113.4 51 113.4 113.4V453.5z"/><linearGradient id="SVGID_1_" gradientUnits="userSpaceOnUse" x1="182.9" y1="199" x2="525.6" y2="541.6"><stop offset="0" stop-color="#DD3B3C"/><stop offset="1" stop-color="#FE4445"/></linearGradient><path fill="url(#SVGID_1_)" d="M566.9 286.5L424.6 144l-159.3-27.3L113.6 314.1l11.6 11.7 -11.6 16.3 10.9 12.3 -10.9 15.7 11.6 11.7 -11.6 16.4 11.6 11.6 -11.6 16.3 140.7 140.8h199.3c62.3 0 113.4-51 113.4-113.3L566.9 286.5z"/><polygon fill="#FFFFFF" points="415.5 254.4 284.9 436.4 125.2 409.9 113.6 426.1 282.9 454.3 425.3 256 "/><polygon fill="#FFFFFF" points="415.5 226.4 284.9 408.4 125.2 381.9 113.6 398.1 282.9 426.3 425.3 228 "/><polygon fill="#FFFFFF" points="415.5 198.4 284.9 380.4 125.2 353.9 113.6 370.1 282.9 398.3 425.3 200 "/><!-- Made for www.totalmoney.sk --><polygon fill="#FFFFFF" points="415.5 170.4 284.9 352.4 125.2 325.9 113.6 342.1 282.9 370.3 425.3 172 "/><path fill="#FFFFFF" d="M216.8 283.8c-7.4-1.3-16.3 2.3-23 10.8 -6.4 8.1-5.1 13.6 2.6 14.9 8.6 1.5 16.7-2.8 23-10.8C225.5 291 225.5 285.3 216.8 283.8zM272.9 137.6l-90.4 117.3 124.9 19.3 84.3-116.8L272.9 137.6zM265.3 116.6L113.6 314.1l169.3 28.2L425.3 144 265.3 116.6zM150.8 304.6l21.5-27.2 -0.2 0 -13.1 1 0.9-3.5 16.5-1.3 7.2 1.3L158.9 306 150.8 304.6zM228 300c-8.4 10.6-20.8 15.1-34.6 12.7 -12.1-2.1-15.9-9.3-7.9-19.6 8.2-10.5 21.8-14.6 34.4-12.4C233 282.9 235.8 290.1 228 300zM282.2 309.5c-8.4 10.6-20.8 15.1-34.6 12.7 -12.1-2.1-15.9-9.3-7.9-19.6 8.2-10.5 21.8-14.6 34.4-12.4C287.2 292.4 290 299.6 282.2 309.5zM169.5 260l100.3-130.1 134.2 22.3 -93.5 129.6L169.5 260zM271 293.3c-7.4-1.3-16.3 2.3-23 10.8 -6.4 8.1-5.1 13.6 2.6 14.9 8.6 1.5 16.7-2.8 23-10.8C279.7 300.6 279.7 294.8 271 293.3z"/></svg>