<svg xmlns="http://www.w3.org/2000/svg" version="1.1" id="Vrstva_2" x="0" y="0" viewBox="0 0 566.9 566.9" preserveAspectRatio="xMidYMid meet" enable-background="new 0 0 566.9 566.9" xml:space="preserve"><path fill="#FE4445" d="M566.9 453.5c0 62.4-51 113.4-113.4 113.4H113.4C51 566.9 0 515.9 0 453.5V113.4C0 51 51 0 113.4 0h340.2c62.4 0 113.4 51 113.4 113.4V453.5z"/><linearGradient id="SVGID_1_" gradientUnits="userSpaceOnUse" x1="136.9" y1="171" x2="516.6" y2="550.6"><stop offset="0" stop-color="#DD3B3C"/><stop offset="1" stop-color="#FE4445"/></linearGradient><path fill="url(#SVGID_1_)" d="M390.7 125.9l-38.3-5.1 -170 4.7 -63.3 142 -5.3 53.3 -0.1 120.3 3.9 9.2 116.7 116.7 219.3-0.1c62.4 0 113.4-51 113.4-113.4V302.2L390.7 125.9z"/><!-- Made for www.totalmoney.sk --><path fill="#FFFFFF" d="M406.7 421.7v18.8c0 7.2 5 13.1 11.1 13.1h24.3c6.1 0 11.1-5.9 11.1-13.1l0.2-52.2C447.3 403.2 434.1 411.8 406.7 421.7zM113.5 387.5l0.2 52.9c0 7.2 5 13.1 11.1 13.1h24.3c6.1 0 11.1-5.9 11.1-13.1v-18.9C144 415.6 123.5 412.4 113.5 387.5zM113.9 345.4c0 0.2-0.3 9-0.3 9 0.2 5.4 0.9 12.8 3.5 20.7 6.7 21 22 27.8 45.3 36.2l242.8 0c23.3-8.4 38.6-15.3 45.3-36.2 1.8-5.7 2.7-11.1 3.2-15.7l0-12.7c0-0.1 0-1.4 0-1.4L113.9 345.4zM181.6 401.3c-12.1 0-22-9.3-22-15.7 0-6.3 11.3-7.4 22-7.3 12.1 0.2 22-1 22 11.5C203.5 403.4 193.7 401.3 181.6 401.3zM386.9 401.3c-12.1 0-22 2.1-22-11.5 0-12.5 9.8-11.3 22-11.5 10.7-0.1 22 1 22 7.3C408.9 391.9 399 401.3 386.9 401.3zM435.2 230c-0.5-2.3-32.6-86.3-32.6-86.3 -7.1-17.3-25.4-29.9-41.7-29.9l-154.7 0c-16.3 0-34.6 12.6-41.7 29.9 0 0-32.1 84-32.6 86.3 -6.8 7.8-18.3 52.2-18.3 58.7l0 46.6 340 0 0-46.6C453.5 282.2 442 237.8 435.2 230zM176.7 151.3c4.6-11.2 16.9-23.1 27.5-23.1l159.7 0c10.6 0 21.9 11.9 26.5 23.1 0 0 26.7 73.9 26.8 74.2 -79.8 13-187.4 12.4-266.3 0C151 225.2 176.7 151.3 176.7 151.3zM174.5 318.4c-19.4 0-35.1 1.5-35.1-18.3 0-21.7 15.7-18.3 35.1-18.3 19.4 0 35.1 14.9 35.1 25S207.1 318.4 174.5 318.4zM332.6 299.9c4.6 0-4.4 19.7-20.2 19.7l-59.1 0c-14.5 0-24.8-19.7-20.2-19.7M392.5 318.4c-31.1 0-35.1-1.5-35.1-11.7s15.7-25 35.1-25c19.4 0 35.1-3.3 35.1 18.3C427.6 319.9 411.9 318.4 392.5 318.4z"/></svg>