<svg xmlns="http://www.w3.org/2000/svg" version="1.1" id="Vrstva_2" x="0" y="0" viewBox="0 0 566.9 566.9" preserveAspectRatio="xMidYMid meet" enable-background="new 0 0 566.9 566.9" xml:space="preserve"><path fill="#FE4445" d="M566.9 453.5c0 62.4-51 113.4-113.4 113.4H113.4C51 566.9 0 515.9 0 453.5V113.4C0 51 51 0 113.4 0h340.2c62.4 0 113.4 51 113.4 113.4V453.5z"/><linearGradient id="SVGID_1_" gradientUnits="userSpaceOnUse" x1="186.4" y1="208.8" x2="522.4" y2="544.9"><stop offset="0" stop-color="#DD3B3C"/><stop offset="1" stop-color="#FE4445"/></linearGradient><path fill="url(#SVGID_1_)" d="M566.9 341L384.5 157.6l-12.7 22 -67.3-67.3 -70 60.6 -15.1 2.8 -99.9 106.8 51 68.5 -30 61.2 154.6 154.7h158.5c62.3 0 113.3-51 113.4-113.3L566.9 341z"/><!-- Made for www.totalmoney.sk --><path fill="#FFFFFF" d="M441.7 253l-24.9-5.2c-5.8-12.8-14.6-24.7-25.9-35 1.7-6.9 3.4-17.8 1.6-29.4 -2.7-17.4-5.8-25.5-10.1-26.4 -4.3-0.9-8.1 1.4-12.5 7.2 -3.6 4.9-11.4 13.1-24.2 20.3 -9.6-4-19.8-7.2-30.6-9.7 -3.8 6-8.7 11.2-14.4 15.4 5.8 1.2 11.6 2.9 17.2 5 3.7 1.4 5.5 5.5 4.1 9.2 -1.1 2.8-3.8 4.5-6.6 4.5 -0.8 0-1.7-0.2-2.6-0.5 -41.2-15.9-95.9 0-96.4 0.2 -3.8 1.1-7.7-1-8.8-4.8 -1.1-3.7 1-7.7 4.8-8.8 0.9-0.3 8.9-2.6 21-4.7 -5.5-4.1-10.3-9.1-14.1-14.9 -42.8 10.5-77.4 34.1-94.5 64.4 -3.1 0.2-7 0.1-10.7-1 2.3-0.9 4.3-1.9 5.9-3.1 5.3-3.7 7.9-10.4 6.5-16.9 -1.3-6.2-5.8-10.7-12-12 -4.6-0.9-9.5 0.4-13.3 3.7 -4.2 3.6-6.3 9-6 14.9 0.1 1.3 0.2 2.6 0.5 3.9 -1.1-0.9-2.1-2-3-3.3 -4.2-6.4-0.2-13.9-0.1-14.1 1.2-2 0.4-4.6-1.6-5.8 -2-1.2-4.6-0.4-5.8 1.6 -0.3 0.5-6.7 12.2 0.4 23 3.3 5.1 8.2 8.3 14.1 9.5 0.4 0.1 0.8 0.1 1.2 0.2 0.9 1 2 2 3.1 2.8 5 3.7 11.2 4.9 16.5 5.1 -4.8 10.9-7.4 22.6-7.4 34.6 0 29.4 15.3 56.1 40.5 76.3l-14.9 41.6c-2.2 6.2 1 13.1 7.3 15.3l30.8 11c6.2 2.2 13.1-1 15.3-7.3l12.1-33.8c19.7 6.6 41.6 10.2 64.6 10.2 16.8 0 33-2 48.2-5.6l15.6 30.4c3 5.9 10.3 8.2 16.2 5.2l29.1-14.9c5.9-3 8.2-10.3 5.2-16.2l-13.4-26.1c15.7-9.7 28.7-21.7 38.1-35.2l33.8-7.4c6.6 0 12-5.4 12-12v-50C453.7 258.4 448.3 253 441.7 253zM103.9 225.1c-0.3-4.4 1.8-6.9 3.1-8 1.4-1.2 3.1-1.9 4.8-1.9 0.4 0 0.8 0 1.2 0.1 4 0.8 5.1 4.1 5.4 5.4 0.5 2.6-0.2 6.2-3.1 8.2 -2.3 1.6-5.9 3-9.6 3.3C104.6 230.3 104 227.9 103.9 225.1zM396 273.6c-3.4 1.8-9.1-2.2-12.8-9 -3.7-6.8-3.9-13.8-0.5-15.6 3.4-1.8 9.1 2.2 12.8 9C399.2 264.8 399.4 271.8 396 273.6z"/><circle fill="#FFFFFF" cx="267.1" cy="144.5" r="48.9"/></svg>