<svg xmlns="http://www.w3.org/2000/svg" version="1.1" id="Vrstva_2" x="0" y="0" viewBox="0 0 566.9 566.9" preserveAspectRatio="xMidYMid meet" enable-background="new 0 0 566.9 566.9" xml:space="preserve"><path fill="#FE4445" d="M566.9 453.5c0 62.4-51 113.4-113.4 113.4H113.4C51 566.9 0 515.9 0 453.5V113.4C0 51 51 0 113.4 0h340.2c62.4 0 113.4 51 113.4 113.4V453.5z"/><linearGradient id="SVGID_1_" gradientUnits="userSpaceOnUse" x1="117.6" y1="109" x2="537.9" y2="529.3"><stop offset="0" stop-color="#DD3B3C"/><stop offset="1" stop-color="#FE4445"/></linearGradient><path fill="url(#SVGID_1_)" d="M566.9 256L424.8 113.8 113.7 113l0.1 294.6L275 566.9h178.5c62.3 0 113.4-51 113.4-113.3L566.9 256z"/><path fill="#FFFFFF" d="M501 321.9l-18.6-3.9c-4.3-9.6-11-18.5-19.4-26.3 1.3-5.2 2.6-13.3 1.2-22 -2-13-4.4-19.1-7.6-19.8 -3.2-0.7-6.1 1-9.3 5.4 -2.7 3.7-8.6 9.8-18.1 15.2 -17-7.1-36.7-11.1-57.6-11.1 -48.7 0-90.4 21.7-107.9 52.6 -2.3 0.2-5.3 0.1-8-0.7 1.7-0.6 3.2-1.4 4.4-2.3 4-2.8 5.9-7.8 4.9-12.7 -1-4.7-4.3-8.1-9-9 -3.4-0.7-7.2 0.3-10 2.8 -3.1 2.7-4.7 6.8-4.5 11.2 0.1 1 0.2 2 0.4 2.9 -0.8-0.7-1.6-1.5-2.2-2.4 -3.2-4.8-0.2-10.4-0.1-10.6 0.9-1.5 0.3-3.5-1.2-4.3 -1.5-0.9-3.5-0.3-4.3 1.2 -0.2 0.4-5 9.1 0.3 17.2 2.5 3.8 6.1 6.2 10.5 7.1 0.3 0.1 0.6 0.1 0.9 0.1 0.7 0.8 1.5 1.5 2.3 2.1 3.7 2.8 8.4 3.7 12.4 3.8 -3.6 8.2-5.5 16.9-5.5 26 0 22 11.5 42.1 30.3 57.2l-11.2 31.2c-1.7 4.7 0.8 9.8 5.4 11.5l23 8.2c4.7 1.7 9.8-0.8 11.5-5.4l9.1-25.3c14.8 4.9 31.2 7.7 48.4 7.7 12.6 0 24.8-1.5 36.1-4.2l11.7 22.8c2.3 4.4 7.7 6.2 12.1 3.9l21.8-11.2c4.4-2.3 6.2-7.7 3.9-12.1l-10-19.6c11.7-7.3 21.5-16.3 28.5-26.4l25.4-5.5c4.9 0 9-4 9-9v-37.5C510 325.9 506 321.9 501 321.9zM247.9 301c-0.2-3.3 1.3-5.1 2.3-6 1.1-0.9 2.4-1.4 3.6-1.4 0.3 0 0.6 0 0.9 0.1 3 0.6 3.8 3 4 4.1 0.4 2-0.1 4.7-2.3 6.2 -1.7 1.2-4.4 2.3-7.2 2.4C248.5 304.9 248 303.1 247.9 301zM411.5 285.6c-0.8 2.1-2.8 3.4-5 3.4 -0.6 0-1.3-0.1-1.9-0.4 -30.8-11.9-71.8 0-72.2 0.1 -2.8 0.8-5.8-0.8-6.6-3.6 -0.8-2.8 0.8-5.8 3.6-6.6 1.8-0.5 44.8-13.1 79.1 0.1C411.1 279.8 412.5 282.8 411.5 285.6zM466.8 337.4c-2.6 1.4-6.8-1.6-9.6-6.8 -2.7-5.1-2.9-10.4-0.4-11.7 2.6-1.4 6.8 1.6 9.6 6.8C469.2 330.7 469.3 336 466.8 337.4z"/><!-- Made for www.totalmoney.sk --><path fill="#FFFFFF" d="M501 321.9l-18.6-3.9c-4.3-9.6-11-18.5-19.4-26.3 1.3-5.2 2.6-13.3 1.2-22 -2-13-4.4-19.1-7.6-19.8 -3.2-0.7-6.1 1-9.3 5.4 -2.7 3.7-8.6 9.8-18.1 15.2 -17-7.1-36.7-11.1-57.6-11.1 -48.7 0-90.4 21.7-107.9 52.6 -2.3 0.2-5.3 0.1-8-0.7 1.7-0.6 3.2-1.4 4.4-2.3 4-2.8 5.9-7.8 4.9-12.7 -1-4.7-4.3-8.1-9-9 -3.4-0.7-7.2 0.3-10 2.8 -3.1 2.7-4.7 6.8-4.5 11.2 0.1 1 0.2 2 0.4 2.9 -0.8-0.7-1.6-1.5-2.2-2.4 -3.2-4.8-0.2-10.4-0.1-10.6 0.9-1.5 0.3-3.5-1.2-4.3 -1.5-0.9-3.5-0.3-4.3 1.2 -0.2 0.4-5 9.1 0.3 17.2 2.5 3.8 6.1 6.2 10.5 7.1 0.3 0.1 0.6 0.1 0.9 0.1 0.7 0.8 1.5 1.5 2.3 2.1 3.7 2.8 8.4 3.7 12.4 3.8 -3.6 8.2-5.5 16.9-5.5 26 0 22 11.5 42.1 30.3 57.2l-11.2 31.2c-1.7 4.7 0.8 9.8 5.4 11.5l23 8.2c4.7 1.7 9.8-0.8 11.5-5.4l9.1-25.3c14.8 4.9 31.2 7.7 48.4 7.7 12.6 0 24.8-1.5 36.1-4.2l11.7 22.8c2.3 4.4 7.7 6.2 12.1 3.9l21.8-11.2c4.4-2.3 6.2-7.7 3.9-12.1l-10-19.6c11.7-7.3 21.5-16.3 28.5-26.4l25.4-5.5c4.9 0 9-4 9-9v-37.5C510 325.9 506 321.9 501 321.9zM247.9 301c-0.2-3.3 1.3-5.1 2.3-6 1.1-0.9 2.4-1.4 3.6-1.4 0.3 0 0.6 0 0.9 0.1 3 0.6 3.8 3 4 4.1 0.4 2-0.1 4.7-2.3 6.2 -1.7 1.2-4.4 2.3-7.2 2.4C248.5 304.9 248 303.1 247.9 301zM411.5 285.6c-0.8 2.1-2.8 3.4-5 3.4 -0.6 0-1.3-0.1-1.9-0.4 -30.8-11.9-71.8 0-72.2 0.1 -2.8 0.8-5.8-0.8-6.6-3.6 -0.8-2.8 0.8-5.8 3.6-6.6 1.8-0.5 44.8-13.1 79.1 0.1C411.1 279.8 412.5 282.8 411.5 285.6zM466.8 337.4c-2.6 1.4-6.8-1.6-9.6-6.8 -2.7-5.1-2.9-10.4-0.4-11.7 2.6-1.4 6.8 1.6 9.6 6.8C469.2 330.7 469.3 336 466.8 337.4z"/><path fill="#FFFFFF" d="M424.4 175.8h-149V225h149V175.8zM262.7 175.8h-149V225h149V175.8zM188.1 113.8h-74.4V163h74.4V113.8zM188.1 236.8h-74.4V286h74.4V236.8zM337.1 113.8H200.4V163h136.8V113.8zM309.7 281.9c-2.6 1.3-5.1 2.7-7.5 4.1h15c-0.5-2.8-0.1-5.5 1-7.9C315.3 279.2 312.5 280.5 309.7 281.9zM200.4 286h25.3c0.4-1 0.8-1.7 1-2 2.1-3.7 6-6 10.2-6 2 0 4 0.5 5.7 1.5 0.7 0.4 1.4 0.9 2 1.4 4-2 8.7-2.7 13-1.8 4.6 1 8.6 3.4 11.4 6.8h4.8c16.2-15.1 38.3-26.1 63.3-31.4v-17.8H200.4V286zM350.1 252.4c7-0.9 14.2-1.4 21.5-1.4 18.3 0 36.5 3 53 8.7v-23h-74.4V252.4zM246.4 344.5c0-6.6 0.9-13.2 2.7-19.6 -2.2-0.9-4.3-2-6.1-3.4 -0.5-0.4-0.9-0.7-1.4-1.1 -5-1.3-9.4-4.1-12.7-8.1l0 0 0 0c-0.6-0.7-1.2-1.5-1.7-2.3 -2.5-3.8-3.6-7.7-3.8-11.3H113.7V348h132.9C246.5 346.8 246.4 345.7 246.4 344.5zM419.1 278.1c1.1 2.5 1.4 5.2 1 7.9h4.4v-8.1c-2.3-0.9-4.6-1.8-7-2.6C418.2 276.2 418.7 277.1 419.1 278.1zM350.1 113.8V163h74.4v-49.2H350.1zM113.7 409h74.4v-49.2h-74.4V409zM248.1 359.8h-47.7V409h73.3l1.6-4.6C261 391.5 251.7 376.2 248.1 359.8z"/></svg>