<svg xmlns="http://www.w3.org/2000/svg" version="1.1" x="0" y="0" viewBox="0 0 179.7 171" preserveAspectRatio="xMidYMid meet" xml:space="preserve"><style>.s0{fill:#013871;}</style><path d="M51.1 155.4v4.9h4.1c0.7 0 1.5-0.2 1.7-0.2 0.7-0.5 1-1 1-2 0-0.9-0.5-1.9-1-2.2s-1-0.2-1.7-0.2h-4.1V155.4zM59.1 153c0.7 0.2 1.2 0.7 1.7 1.2 0.5 0.5 0.7 1 1 1.5s0.2 1.2 0.2 2c0 0.7-0.2 1.7-0.7 2.7 -0.5 0.7-1.2 1.5-2.2 1.7 0.7 0.2 1.5 0.7 1.7 1.5 0.5 0.7 0.5 1.7 0.5 2.9v1.2c0 0.7 0 1.5 0.2 1.7 0.2 0.5 0.2 0.7 0.7 1.2v0.5h-4.1c-0.2-0.5-0.2-0.7-0.2-1 -0.2-0.5-0.2-0.9-0.2-1.7v-1.7c0-1.2-0.2-2-0.5-2.4 -0.5-0.5-1-0.5-2.2-0.5h-3.9v7.3h-3.6V152.7h8.7C57.4 152.3 58.4 152.5 59.1 153M94.8 162.4v4.9h4.6c0.7 0 1.5-0.2 2-0.2 0.7-0.5 1.2-1 1.2-2.2 0-1-0.5-1.7-1.2-2 -0.5-0.2-1-0.2-1.7-0.2h-4.6v-0.2H94.8zM94.8 155.4v4.1h4.6c0.7 0 1.5-0.2 2-0.5s0.7-0.7 0.7-1.7c0-1-0.2-1.5-1-1.7 -0.5-0.2-1.2-0.2-2.2-0.2h-3.9l0 0H94.8zM104.8 154.2c0.5 0.7 0.7 1.7 0.7 2.7 0 0.9-0.2 1.9-0.7 2.7 -0.2 0.5-0.7 0.7-1.5 1 1 0.2 1.7 0.7 2.2 1.7 0.5 0.7 0.7 1.7 0.7 2.7s-0.2 2-0.7 2.9c-0.5 0.5-0.7 1-1.5 1.4 -0.5 0.5-1.2 0.7-1.9 1s-1.7 0.2-2.7 0.2h-8.3v-18.2h9C102.4 152.3 103.8 153 104.8 154.2M151 104.3l-1.5 7h8.1c1.4 0 2.7-0.2 3.6-0.7 0.9-0.5 1.7-1.5 1.9-2.9 0.2-1.4 0-2.4-1-2.9 -0.9-0.2-2.2-0.5-3.9-0.5h-7.1l0 0H151zM148.3 116.7l-1.7 8.5h8.1c1.5 0 2.7-0.2 3.4-0.5 1.7-0.7 2.7-2 2.9-4.1 0.5-1.7-0.2-2.9-1.5-3.4 -0.7-0.5-1.7-0.5-3.1-0.5H148.3zM169 102.1c0.7 1.5 0.7 2.9 0.5 4.9 -0.2 2-1.2 3.7-2.4 4.9 -0.7 0.7-1.7 1.2-2.9 1.7 1.5 0.5 2.7 1.5 3.2 2.9s0.7 2.9 0.2 4.9c-0.5 1.9-1.2 3.6-2.7 5.1 -0.7 0.9-1.7 1.9-2.9 2.7 -1.2 0.7-2.7 1.5-3.9 1.7 -1.4 0.2-2.9 0.5-4.6 0.5h-14.6l6.8-32.3h15.8C165.4 98.7 168 99.9 169 102.1" fill="#013871"/><polygon points="0 152.3 0 155.6 5.6 155.6 5.6 170.7 9.5 170.7 9.5 155.6 14.8 155.6 14.8 152.3 " fill="#013871"/><path d="M20.2 163.7h4.6l-2.4-7.3L20.2 163.7zM20.4 152.3h4.4l6.3 18.2h-4.1l-1.2-3.9H19.2l-1.2 3.9h-3.9L20.4 152.3z" fill="#013871"/><polygon points="45 152.3 45 155.6 39.6 155.6 39.6 170.7 35.8 170.7 35.8 155.6 30.2 155.6 30.2 152.3 " fill="#013871"/><path d="M70.5 163.7h4.6l-2.4-7.3L70.5 163.7zM71 152.3h4.4l6.3 18.2h-4.1l-1.2-3.9h-6.6l-1.2 3.9h-3.9L71 152.3zM113.8 163.7h4.6l-2.4-7.3L113.8 163.7zM114.3 152.3h4.4l6.3 18.2h-4.1l-1.2-3.9h-6.8l-1.2 3.9h-3.9L114.3 152.3z" fill="#013871"/><polygon points="127.2 152.3 131.3 152.3 138.6 165.1 138.6 152.3 142.3 152.3 142.3 170.7 138.4 170.7 130.8 157.6 130.8 170.7 127.2 170.7 " fill="#013871"/><polygon points="145.4 152.3 149.1 152.3 149.1 159.8 156.1 152.3 161.2 152.3 153.7 159.8 161.5 170.7 156.6 170.7 151 162.7 149.1 164.4 149.1 170.7 145.4 170.7 " fill="#013871"/><path d="M171.2 156.6l2.2 7.3h-4.6L171.2 156.6zM169 152.3l-6.6 18.2h3.9l1.2-3.9h6.8l1.2 3.9h4.1l-6.3-18.2H169z" fill="#013871"/><polygon points="143 98.7 141.8 104.3 132 104.3 126.5 131.1 119.6 131.1 125.3 104.3 115.5 104.3 116.7 98.7 " fill="#013871"/><polygon points="155.7 30.2 155.7 30.9 155.7 31.6 177.3 31.6 177.3 141.5 1.5 141.5 1.5 31.6 87.5 31.6 87.5 30.2 0 30.2 0 143 178.7 143 178.7 30.2 " fill="#013871"/><polygon points="30.4 131.1 81.5 42.3 57.1 42.3 6.1 131.1 " fill="#013871"/><polygon points="112.1 0 36.7 131.1 61 131.1 136.2 0 " fill="#013871"/><polygon points="91.9 131.1 155.2 20.9 130.8 20.9 67.6 131.1 " fill="#013871"/></svg>