<svg xmlns="http://www.w3.org/2000/svg" xml:space="preserve" viewBox="0 0 3175 430" preserveAspectRatio="xMidYMid meet" style="clip-rule:evenodd;fill-rule:evenodd;image-rendering:optimizeQuality;shape-rendering:geometricPrecision;text-rendering:geometricPrecision"><style>.s0{stop-color:#4B4B4A;}.s1{stop-color:#939494;}.s2{stop-color:#FEFEFE;}</style><defs><style type="text/css">
    .fil3 {fill:white;fill-rule:nonzero}
    .fil0 {fill:#2B2A29;fill-rule:nonzero}
    .fil2 {fill:#50504F;fill-rule:nonzero}
    .fil4 {fill:url(#id2);fill-rule:nonzero}
    .fil1 {fill:url(#id3);fill-rule:nonzero}
   </style><clipPath id="id0"><path d="M10.59 9.31l420.84 0 0 420.84-420.84 0 0-420.84z"/></clipPath><clipPath id="id1"><path d="M56.47 76.51l365.08 0 0 328.98-365.08 0 0-328.98z"/></clipPath><linearGradient id="id2" gradientUnits="userSpaceOnUse" x1="35.24" y1="338.78" x2="407.38" y2="123.92"><stop offset="0" stop-color="#4B4B4A"/><stop offset="0.03" stop-color="#4B4B4A"/><stop offset="0.08" stop-color="#939494"/><stop offset="0.14" stop-color="#4B4B4A"/><stop offset="0.91" stop-color="#4B4B4A"/><stop offset="0.96" stop-color="#939494"/><stop offset="0.97" stop-color="#737372"/><stop offset="1" stop-color="#50504F"/></linearGradient><radialGradient id="id3" gradientUnits="userSpaceOnUse" cx="103.15" cy="107.27" r="66.01" fx="103.15" fy="107.27"><stop offset="0" stop-color="#FEFEFE"/><stop offset="0.03" stop-color="#FEFEFE"/><stop offset="0.36" stop-color="#F3997C"/><stop offset="1" stop-color="#E31E24"/><!-- Made for www.totalmoney.sk --></radialGradient></defs><g id="Layer_x0020_1"><metadata id="CorelCorpID_0Corel-Layer"/><g id="_228178168"><path id="_228162304" class="fil0" d="M714.3 37.76l0 257.83c0 56.83-49.78 100.03-115.53 100.03-65.75 0-115.53-43.2-115.53-100.03l0-197.24c0-33.35 26.77-60.58 60.11-60.58l4.23 0 0 257.36c0 30.54 27.24 49.31 53.54 49.31 25.36 0 52.6-17.38 52.6-49.31l0-200.07c0-31.47 25.83-57.3 57.29-57.3l3.29 0z"/><path id="_228162184" class="fil0" d="M841.07 128.87c87.82 0 101.91 49.31 101.91 78.9l0 184.1-2.81 0c-32.41 0-60.11-27.24-60.11-59.64l0-123.51c0-17.39-7.04-38.05-41.33-38.05-15.97 0-25.36 1.88-35.69 5.64 0 4.23 0 215.56 0 215.56l-62.93 0 0-243.74c26.77-11.74 69.98-19.26 100.97-19.26z"/><path id="_228162640" class="fil0" d="M1001.91 37.76c18.78 0 33.81 14.09 33.81 31.47 0 16.9-15.03 30.52-33.81 30.52-18.78 0-34.28-13.62-34.28-30.52 0-17.38 15.5-31.47 34.28-31.47zm31 91.11l0 0 0 203.83c0 32.4-26.3 59.17-59.17 59.17l-2.82 0 0-263 61.99 0z"/><path id="_228162232" class="fil0" d="M1211.72 32.59c29.59 0 57.29 6.57 80.32 20.66l0 61.99c-14.09-18.31-34.29-30.99-66.68-30.99-63.88 0-103.33 62.92-103.33 128.21 0 61.53 41.33 128.69 103.33 128.69 27.23 0 52.13-7.98 66.68-27.71l0 61.05c-18.32 13.62-46.97 21.14-80.78 21.14-101.45 0-154.98-92.98-154.98-182.68 0-88.3 53.53-180.34 155.44-180.34z"/><path id="_228162280" class="fil0" d="M1403.23 128.87c10.33 0 23.49 0.94 35.22 2.82l0 50.25c-21.6-15.5-50.25-10.33-62.93-3.76l0 154.52c0 32.4-26.76 59.17-59.17 59.17l-3.28 0 0-242.8c24.42-11.74 49.31-20.19 90.16-20.19z"/><path id="_228162664" class="fil0" d="M1656.36 263.19l-156.4 21.6c5.18 42.74 26.78 65.29 66.23 65.29 43.67 0 65.75-14.1 81.72-25.37l0 52.13c-15.97 8.46-45.54 18.78-87.81 18.78-76.56 0-122.11-51.65-122.11-134.31 0-80.31 42.27-132.44 111.77-132.44 68.56 0 106.61 45.56 106.61 124.45l0 9.86zm-54.48-35.69l0 0c-1.87-52.14-34.28-57.77-51.67-57.77l-2.34 0c-35.21 0.94-51.65 25.83-51.65 72.32l105.67-14.55z"/><path id="_228162424" class="fil0" d="M1881.87 37.76l0 350.82c-15.04 3.29-64.34 7.04-85.01 7.04l-4.22 0c-76.55-0.93-118.35-45.08-118.35-124.46 0-80.3 43.67-131.96 111.31-131.96 13.15 0 24.41 1.41 34.28 3.75l0-45.55c0-32.88 26.3-59.65 59.17-59.65l2.82 0zm-61.52 141.83l0 0c-6.58-1.88-13.62-2.82-21.6-2.82-51.67 0-62.47 49.78-62.47 91.11 0 57.78 19.26 86.41 58.24 86.41 6.57 0 21.13-1.41 25.83-2.34l0-172.36z"/><path id="_228162040" class="fil0" d="M1942.18 37.76c18.79 0 33.82 14.09 33.82 31.47 0 16.9-15.03 30.52-33.82 30.52-18.77 0-34.27-13.62-34.27-30.52 0-17.38 15.5-31.47 34.27-31.47zm31.01 91.11l0 0 0 203.83c0 32.4-26.31 59.17-59.18 59.17l-2.82 0 0-263 62 0z"/><path id="_228163168" class="fil0" d="M2083 37.76l0 91.11 40.38 0 0 50.25-40.38 0 0 139.49c0 16.89 5.63 22.06 23.94 22.06 4.69 0 11.74-1.41 16.44-3.28l0 52.13c-2.82 0.94-15.03 6.1-31.46 6.1-46.03 0-71.39-22.53-71.39-63.39l0-153.11-27.24 0 0-50.25 27.24 0 0-31.93c0-32.4 26.29-59.17 58.71-59.17l3.76 0z"/><path id="_228163192" class="fil0" d="M2411.98 200.76l0 1.42c33.89 6.59 80.5 36.24 80.5 88.02 0 70.61-56.49 101.67-139.33 101.67-79.07 0-107.78-1.41-107.78-1.41l0-338.9c22.12-11.3 59.3-19.77 103.55-19.77 87.55 0 131.32 38.13 131.32 90.38 0 48.48-37.18 72.01-68.26 78.6zm3.3-74.37l0 0c0-39.07-22.59-57.43-66.37-57.43-16.01 0-28.24 1.88-40.48 5.65l0 112.02 20.71 0.47c64.49 1.88 86.13-17.89 86.13-60.72zm-86.13 92.73l0 0-20.71 0.47 0 131.79c11.77 0 24.47 0 42.36 0 43.3 0 74.37-16.47 74.37-62.13 0-48.95-27.3-72.02-96.02-70.13z"/><path id="_228163000" class="fil0" d="M2647.63 225.71l0-17.41c0-33.42-20.71-42.36-50.83-42.36-24.95 0-49.9 9.42-77.67 24.01l0-41.89c16.48-8 47.54-19.77 88.02-19.77 53.19 0 97.44 26.83 97.44 92.73l0 167.57c-17.42 3.3-57.9 7.06-82.38 7.06l-13.18 0c-69.66 0-105.9-29.18-105.9-78.61 0-67.78 65.9-83.79 144.5-91.32zm0 29.18l0 0c-55.07 5.18-88.49 16.48-88.49 60.26 0 32.47 19.77 47.06 53.66 47.06 13.18 0 28.71-0.94 34.83-2.35l0-104.97z"/><path id="_228163336" class="fil0" d="M2832.38 128.26c88.02 0 102.14 49.42 102.14 79.08l0 184.51-2.82 0c-32.48 0-60.25-27.29-60.25-59.77l0-123.8c0-17.41-7.06-38.12-41.42-38.12-16.01 0-25.42 1.88-35.78 5.65 0 4.23 0 216.04 0 216.04l-63.07 0 0-244.29c26.82-11.77 70.13-19.3 101.2-19.3z"/><path id="_228162928" class="fil0" d="M3024.38 330.65c0 33.9-26.36 61.19-61.66 61.19l-0.47 0 0-293.71c0-33.89 26.36-61.19 61.66-61.19l0.47 0 0 213.7 78.14-115.79 58.83 0-80.49 117.67 94.14 139.32-65.9 0-84.72-130.38 0 69.19z"/><path id="_228176968" class="fil1" d="M412.59 206.3c0 113.93-92.37 206.3-206.3 206.3-113.93 0-206.29-92.37-206.29-206.3 0-113.93 92.36-206.29 206.29-206.29 113.93 0 206.3 92.36 206.3 206.3z"/><path id="_228176584" class="fil2" d="M188.81 97.11c4.3 3.29 25.88 15.92 32.35 19.97 0.86 0.54 1.58 1.06 2.2 1.57 0.5-0.71 0.88-1.26 1.08-1.6 2.27-3.79 3.17-6.82-3.28-10.87-6.46-4.04-28.05-16.68-32.35-19.96-0.26-0.2-6.86-5.44-7.07-5.71 2.7 7.39 4.47 14.62 7.07 16.6z"/><path id="_228176512" class="fil3" d="M193.22 149.01c0 0 23.84-30.83 26.11-34.62 2.28-3.79 3.18-6.82-3.28-10.87-6.46-4.04-28.05-16.68-32.35-19.96-4.29-3.29-3.54-15.41 9.1-17.95 12.63-2.52 122.3-11.62 165.01-7.07 42.71 4.55 38.85 19.98 37.14 26.53-2.47 9.54-17.18 24.01-40.43 44.98 0 0-38.41 35.63-66.46 60.14-28.05 24.51-117.75 100.06-135.19 113.71-17.44 13.65-85.04 63.95-89.43 67.24-4.39 3.29-16.66 13.16-23.34 6.28-6.68-6.89 0-14.56 3.39-19.26 3.39-4.69 139.62-197.04 149.72-209.17z"/><path id="_228176488" class="fil4" d="M392.33 70.25c1.75 4.2 3.3 12.21 2.62 14.83-2.47 9.54-17.18 24.01-40.43 44.98 0 0-38.41 35.63-66.46 60.14-28.05 24.51-117.75 100.06-135.19 113.71-17.44 13.65-85.04 63.95-89.43 67.24-3.35 2.51-18.24 4.66-24.78 4.48 2.11 3.02 5.89 6.36 9.79 10.14 6.89 6.67 18.95-2.99 23.34-6.28 4.39-3.29 71.99-53.59 89.43-67.24 17.44-13.65 107.14-89.2 135.19-113.71 28.05-24.51 66.45-60.14 66.45-60.14 23.25-20.97 35.94-32.38 38.42-41.92 1.14-4.4 2.68-18.18-8.94-26.23z"/></g></g></svg>