<svg xmlns:svg="http://www.w3.org/2000/svg" xmlns="http://www.w3.org/2000/svg" viewBox="0 0 402.4 64.4" preserveAspectRatio="xMidYMid meet" xml:space="preserve" version="1.1"><style>.s0{fill:#007032;}.s1{fill:#f25c19;}</style><!-- Made for www.totalmoney.sk --><g transform="matrix(1.25,0,0,-1.25,0,64.375)"><g transform="scale(0.1,0.1)"><path d="m424.1 340.3 0 0-0.1 0.1 0 0c-2.9 1.7-7.2 2.7-10.2 1.4-18.7 1.7-36.6 1.6-55.5 1.4l-0.6 0-0.8-0.1c-9.5-0.1-19.3-0.2-29.1 0l-79.4 1.6c-18.6 0.5-39 0.3-59-0.4-14.8-0.1-29.2-0.5-43.8-0.9-15.3-0.4-51.6-0.5-73.4-0.6-11.6 0-17.7-0.1-18.5-0.1-2.6-0.1-5.7-3.7-5.8-6.7 0-1.6 0.9-3.4 3.7-3.7 2-0.2 15.2-0.2 39.1-0.2l24.4 0.1c6.5 0 9.5-0.1 10.9 0l0.2 0c18 1.8 36 1.7 53.5 1.6l1.3 0c11.3-0.1 23-0.2 34.7 0.3 2.4-0.6 5 0 7.5 0.5l0.4 0c1.1 0.2 2.3 0.4 3.4 0.6 2.7-0.8 5.8-0.7 8.9-0.7 3.1 0.1 6.3 0.1 9.2-0.6l0 0 0.5 0 0 0.1c2.6 0.9 4.8 0.4 7.3-0.1 0.1 0 0.4-0.1 0.4-0.1 1.2-0.2 2.3-0.4 3.3-0.5 22.7 0.6 47.8-0.2 79.1-2.6 0 0 14.8-1.6 14.8-1.6l0.2 0c13.1 1.3 26.7 0.3 39.9-0.7l0.3 0c9.9-0.7 19.2-1.4 28.5-1.2l0.1-0.1 0.5 0.2 0 0.1 4.9 3.9 0.1 0 0.2 0.2 0 0c1.6 2.6 1.1 6.3-1.1 8.4" fill="#e5b506"/><path d="m292.8 171.7 0.4 0.2 0 1-0.4 30.9 0 0.2c-0.6 4.6-0.7 9.7-0.8 15.2-0.1 6.1-0.3 12.5-1.1 18.1-0.2 8-1.8 16.6-3.3 24.9l-1 5.6-0.1 0.5-0.4 0.4c-1.2 1.2-1.7 2.8-2.2 4.6-0.4 1.5-0.8 3.1-1.7 4.6-2.1 3.8-5.4 7.4-8.3 10.7l-0.2 0.2c-0.7 0.9-1.6 1.5-2.3 1.9-0.4 0.3-0.8 0.6-1.3 0.9l-0.7 0.6-0.4-0.1-0.6 0.4c-2.6 2.1-5.1 2.9-7.9 3.8l-0.1 0c-0.8 1.2-2.3 1.3-3.4 1.3l0 0.8-1.5 0.2-6.9 1-1 0.2-0.6-0.8c-0.3-0.4-0.3-0.4-1.8 0.1-0.6 0.2-1.4 0.5-2.2 0.5l-0.8 0.1-0.4-0.4c-0.2 0.1-0.4 0.3-0.8 0.5l-2.9 0.8-0.3-1.3c-1.2 0-2.3-0.2-3.2-0.7l-8.7 0 0.5-1.6-0.1-0.1c-1.8 0.5-3.2-0.6-4.1-1.3-0.1-0.1-0.3-0.3-0.4-0.3-1.5-0.2-2.3-0.9-2.9-1.4-0.5-0.3-0.6-0.4-1-0.5l-0.7 0-0.5-0.6c-0.7-0.7-2.6-1.6-3.7-2.1l-2.3-1 0.5-0.5c-0.4-0.1-0.8-0.4-1.1-0.7l-2.2 0 0-1.8c-0.1 0-0.2 0-0.3 0l-1.3 0.6c-0.1 0.1-0.9-1.1-0.9-1.1-1.4-1.9-3.1-3.8-5.1-5.7-2.1-2.4-4.4-4.7-6.1-7.3l-0.5-0.8 0.3-0.8c-0.4-0.3-1.5-0.9-1.6-2.2-0.9-0.9-1.1-2.1-1.2-3-0.1-0.2-0.1-0.6-0.2-0.8-0.9-1.1-1.1-2.2-1.3-3.1-0.1-0.7-0.1-1-0.4-1.4l-1.1-1.4 0.5-0.4c-0.3-0.8-0.4-1.7-0.4-2.3 0-0.2 0-0.5 0-0.7l-0.7-0.5 0.2-1.1c0.3-2.2 0-4.2-0.3-6.3-0.3-2.1-0.5-4.2-0.3-6.5-0.8-1.3-0.7-2.8-0.5-3.8 0-0.3 0.1-0.7 0.1-1l-1.1-0.9 0.8-1.3c0.6-1 0.1-2.6-0.3-4.1-0.5-1.4-1-3.2-0.4-4.8-0.1-0.1-0.3-0.3-0.4-0.4-0.2-0.3-0.3-0.7-0.3-1.3 0-1.1-0.1-1.5-0.1-1.6l-0.8-1.7-0.1-0.7 1.4-1.1c-0.2-1 0-1.9 0.1-2.7 0.2-1.1 0.2-1.6-0.1-2.1l-0.9-1.7 0.9-1.1 0-0.3c0-0.7-0.1-2.1 0.9-3.1 0-0.2 0-0.3 0.1-0.5l-1.7-0.5 1.1-2.3c0-0.2-0.1-0.4-0.1-0.6-0.2-0.7-0.5-2 0.2-3.2-0.6-1.3-0.2-2.7 0-3.5 0.1-0.2 0.2-0.6 0.2-0.8-1.6-1.6-0.8-3.9-0.4-5.1-0.7-1.2-0.6-2.5-0.4-3.3l-2.1-0.7 2.1-2.2c-0.1-0.5-0.1-1.1 0.3-1.7 0.2-0.4 0.5-0.6 0.9-0.8l-0.7-0.2c0-0.1 0.1-0.1 0.1-0.2l0.7-2 0-0.2c-0.2-1.2 0.1-2.3 0.7-3.2-0.2-0.2-0.3-0.6-0.4-1l-0.9-0.8 0.8-1.2c0.7-0.9 0.4-2.2-0.1-4-0.4-1.7-0.9-3.9 0-5.7l-1.2-1.1 1.5-1.1c0-0.1-0.1-0.2-0.1-0.2-0.4-0.8-1.1-2.1-0.2-3.5l-0.1 0.2c0.3-0.7 0.2-1.8 0-3-0.2-1.8-0.4-3.9 0.5-5.9l-0.3-2.1 0.1 0.3c-0.3-0.8-0.1-1.5 0.2-2l-0.7-0.3 0.5-1.4c0.5-1.5 0.5-3.4 0.5-5.4 0-3.7 0-8 3.4-11.1l0.8-0.7 0.9 0.3c2.5 0.7 2.6 3.2 2.7 4.6 0 0.3 0 0.6 0 0.8l0.1 0.4-0.1 0.4c-1 3.4-0.6 7.9-0.2 11.8 0.1 1 0.2 2.1 0.3 3l0.1 0.5-0.2 0.4c-0.7 1.3-0.5 2.7-0.4 4.3 0.2 1.4 0.4 3-0.1 4.6 0.6 7.2 0.2 15.8-0.1 23.3-0.1 3.2-0.2 6.3-0.2 9l0 0.1-0.1 0.1c-0.4 3.6-0.3 7.4-0.2 11.1 0.1 3.3 0.2 6.8-0.1 9.9 0.8 3.6 0.7 6.9 0.7 10.4 0 1.6-0.1 3.2 0 4.9l0 0.4-0.2 0.2c0.8 0.9 1 1.9 0.6 2.9 0.4 1.3 0.4 2.6 0.5 3.7 0 0.9 0 1.8 0.3 2.6l0.1 0.4-0.1 0.5c-0.2 0.7 0 1.6 0.2 2.5 0.3 1.2 0.5 2.5 0.1 3.9 1.4 2.7 1.6 6 1.9 9.2l0.1 1.1c0.1 0.7-0.2 1.4-0.7 1.9l0 0.1c0 1.5 0.7 2.6 1.7 4.1 1 1.6 2.1 3.4 2.5 5.9l0 0.4 0 0.1c0.1 0.1 0.3 0.2 0.4 0.3 0.6 0.5 1.6 1.3 1.5 2.6 0 0.2 0 0.5-0.1 0.7 1.2 1.1 1.9 2.3 2.6 3.4 1 1.6 1.7 2.8 3.6 3.4l1 0.3 0.2 1c0.3 1.1 1.2 1.7 2.7 2.6 1.1 0.7 2.3 1.5 3.3 2.6 1.3-0.1 2 0.3 2.4 0.7 1.5 0.4 2.7 1.2 3.6 2 1.6 1.3 2.1 1.6 3.2 1.1l1.1-0.5 0.7 0.7c0 0 0.1 0 0.2 0 0.5 0.2 1.3 0.4 1.8 1.2 0.5 0.1 0.9 0.3 1.3 0.3 0.9 0.3 1.1 0.4 1.4 0.2 0.3-0.2 0.9-0.4 1.6-0.2l0.1-0.1 1.2 0.2 1.7 0.2c4.9 0.6 9.2 1.2 13.1-0.9l1.4-0.8 0.8 1.3c0.2-0.2 0.4-0.4 0.5-0.6 1-1.1 2.7-3 5.2-2.6 0.5-0.5 1.2-0.9 1.7-1.2 0.2-0.1 0.5-0.3 0.7-0.4l0-0.1 0.3-0.4c0.8-1 2.4-1.5 3.8-1.6 3-3.1 5.9-7.2 5.9-9.1l0-1.7 1.3 0c0 0 0 0 0-0.1 0.5-2.3 1.1-5.1 2.9-6.9-0.5-1.2-0.1-2.5 0.2-3.1 0-0.2 0.1-0.4 0.2-0.6l-0.4-1.3 1.1-1.1 0.3-0.2c-0.1-1.2 0.5-2.2 0.8-3 0.1-0.2 0.2-0.5 0.3-0.7l-0.3-0.6c-1.6-2.9 0.5-4.6 1.5-5.4 0.2-0.1 0.3-0.2 0.4-0.3-0.8-0.6-0.8-1.2-0.9-2.2l0.2-1.3 0.5-0.8 0 0c0 0 0-0.1 0.1-0.2 0.1-0.2 0.2-0.6 0.4-1l-0.6-0.6-0.4-1.5 0.9-1.2 0.6-0.3c0-0.7 0.3-1.3 0.5-1.7 0-0.1 0.1-0.2 0.1-0.3l-0.2-0.8c-0.5-2.8-1.3-6.4 0.5-9.4-0.1-0.1-0.1-0.1-0.1-0.2-0.8-1.1-0.6-2.3-0.5-3.2 0-0.3 0.1-0.8 0.1-1l-0.4-1.7c0-0.1 0.6-0.2 1.1-0.4-0.1-0.2-0.2-0.3-0.2-0.6l-0.3-2 0.6 0c-0.1-0.7-0.1-1.4-0.2-1.9 0-1-0.1-1.7-0.4-2.3l-0.1-0.2-0.1-0.2c-0.5-1.9 0.2-3.6 0.7-5 0.1-0.3 0.2-0.5 0.3-0.8-0.3-0.3-0.6-0.8-0.6-1.4 0-0.2 0.1-0.3 0.1-0.4l-0.4-0.4 0.4-1c0.2-0.6 0.5-1 0.9-1.2l-0.3-0.1c-0.1 0-0.1-1.3-0.1-1.3l0-0.5-1.1-0.3 0.5-1.2c-0.3-0.5-0.5-1.3-0.3-2.1l-0.7-1.3c0 0 0.1-0.8 0.8-1.1-0.7-2.3 1-4.1 2-5.1 0.4-0.4 0.7-0.8 0.9-1l-0.8 0 0.6-2.2 0-0.1c-0.1-0.2-0.3-0.3-0.4-0.5l-1.4-0.7 0.5-1.9-0.1-0.5c-0.3-1-0.1-1.7 0.2-2.1 0.1-0.1 0.1-0.1 0.2-0.2-0.5-0.5-1.1-1.2-1.2-2.4l-0.2-1.6 1.3-0.2c-0.1-0.3-0.2-0.7-0.3-1-0.2-0.6-0.3-1.1-0.6-1.5 0-0.1 0-0.1-0.1-0.2l2.3-1.3c-0.3-0.6-0.5-1.2-0.7-1.7-0.1-0.2-0.2-0.5-0.3-0.7l-2.1 0 0.1-2.3c0.1-0.3 0.2-0.7 0.2-1.2 0-0.4 0.1-0.9 0.2-1.4l0-2.2c0-0.3 0-0.8 0.1-1.2l-0.3-0.1 0.2-1.2c0.1-0.6 0.1-1.2 0-1.9 0-0.3 0-0.7 0-1.1l-1.6-0.8 1.9-2.1 0-0.1c-0.2-0.5-0.5-1.2-0.5-2l-1.4 0 2.4-2.9c0.2-0.2 0.4-0.9 0.5-1.3 0 0 0.1-0.2 0.1-0.2-1-0.9-1.1-2.3-1.2-3-0.1-0.3-0.1-0.8-0.2-1 0 0 0 0 0 0.1l0.6-0.8c-0.4-0.3-0.8-0.7-0.9-1-0.3-0.5-0.3-1.1-0.2-1.6l-2.2 0 1.8-1.9-1.7-0.6 1.5-1.2 0-4.5c0-0.9 0.4-1.6 1.1-1.9 0 0 0.1 0 0.1 0 0.9-0.6 1.9-0.6 2.8-0.4l0-1.9 2.2 0.7c1.6 0.4 2.8 0.5 4.1 0.3l1.8-0.3 0.3 1.8c0.8 6.9 0.7 13.5 0.5 20-0.2 6.2-0.3 12.2 0.5 18 0.5 1.2 0 2.2-0.3 2.7" fill="#007032"/><path d="m161.1 171.7 0.4 0.2 0 1-0.3 30.9 0 0.2c-0.6 4.6-0.7 9.7-0.8 15.2-0.1 6.1-0.3 12.5-1.1 18.1-0.1 8-1.7 16.6-3.3 24.9l-1 5.6-0.1 0.5-0.4 0.4c-1.2 1.2-1.7 2.8-2.1 4.6-0.4 1.5-0.8 3.1-1.8 4.6-2.1 3.8-5.4 7.4-8.3 10.7l-0.2 0.2c-0.7 0.9-1.6 1.5-2.3 1.9-0.4 0.3-0.8 0.6-1.2 0.9l-0.7 0.6-0.4-0.1-0.5 0.4c-2.6 2.1-5.1 2.9-7.9 3.8l-0.1 0c-0.8 1.2-2.4 1.3-3.5 1.3l0 0.8-1.5 0.2-6.9 1-1 0.2-0.6-0.8c-0.3-0.4-0.3-0.4-1.8 0.1-0.7 0.2-1.3 0.5-2.2 0.5l-0.8 0.1-0.4-0.4c-0.2 0.1-0.5 0.3-0.8 0.5l-2.9 0.8-0.2-1.3c-1.3 0-2.4-0.2-3.3-0.7l-8.7 0 0.5-1.6-0.1-0.1c-1.8 0.5-3.3-0.6-4-1.3-0.2-0.1-0.3-0.3-0.4-0.3-1.5-0.2-2.3-0.9-2.9-1.4-0.4-0.3-0.6-0.4-1-0.5l-0.7 0-0.5-0.6c-0.7-0.7-2.6-1.6-3.7-2.1l-2.3-1 0.5-0.5c-0.4-0.1-0.7-0.4-1.1-0.7l-2.2 0 0-1.8c-0.1 0-0.2 0-0.3 0l-1.2 0.6c-0.1 0.1-0.9-1.1-0.9-1.1-1.3-1.9-3.1-3.8-5-5.7-2.2-2.4-4.4-4.7-6.2-7.3l-0.5-0.8 0.4-0.8c-0.4-0.3-1.5-0.9-1.7-2.2-0.9-0.9-1-2.1-1.2-3 0-0.2-0.1-0.6-0.1-0.8-0.9-1.1-1.1-2.2-1.3-3.1-0.1-0.7-0.2-1-0.5-1.4l-1.1-1.4 0.5-0.4c-0.3-0.8-0.4-1.7-0.4-2.3 0-0.2 0-0.5 0-0.7l-0.8-0.5 0.2-1.1c0.3-2.2 0-4.2-0.3-6.3-0.3-2.1-0.6-4.2-0.3-6.5-0.8-1.3-0.7-2.8-0.5-3.8 0-0.3 0.1-0.7 0.1-1l-1.1-0.9 0.8-1.3c0.6-1 0.1-2.6-0.3-4.1-0.4-1.4-0.9-3.2-0.4-4.8-0.2-0.1-0.3-0.3-0.4-0.4-0.2-0.3-0.4-0.7-0.4-1.3 0-1.1-0.1-1.5-0.1-1.6l-0.8-1.7-0.2-0.7 1.5-1.1c-0.2-1 0-1.9 0.1-2.7 0.2-1.1 0.2-1.6-0.1-2.1l-1-1.7 1-1.1 0-0.3c-0.1-0.7-0.1-2.1 0.8-3.1 0-0.2 0.1-0.3 0.1-0.5l-1.7-0.5 1-2.3c0-0.2-0.1-0.4-0.1-0.6-0.2-0.7-0.5-2 0.2-3.2-0.5-1.3-0.2-2.7 0-3.5 0.1-0.2 0.2-0.6 0.2-0.8-1.6-1.6-0.8-3.9-0.4-5.1-0.7-1.2-0.6-2.5-0.4-3.3l-2.2-0.7 2.2-2.2c-0.1-0.5-0.1-1.1 0.3-1.7 0.3-0.4 0.6-0.6 0.9-0.8l-0.6-0.2c0-0.1 0.1-0.1 0.1-0.2l0 0 0.8-2 0-0.2c-0.2-1.2 0.1-2.3 0.7-3.2-0.2-0.2-0.3-0.6-0.4-1l-0.9-0.8 0.9-1.2c0.6-0.9 0.4-2.2-0.1-4-0.4-1.7-0.9-3.9 0-5.7l-1.2-1.1 1.5-1.1c0-0.1-0.1-0.2-0.1-0.2-0.4-0.8-1.1-2.1-0.2-3.5l-0.1 0.2c0.3-0.7 0.2-1.8 0-3-0.2-1.8-0.4-3.9 0.5-5.9l-0.3-2.1 0.1 0.3c-0.3-0.8-0.1-1.5 0.2-2l-0.7-0.3 0.5-1.4c0.5-1.5 0.5-3.4 0.5-5.4 0-3.7 0-8 3.4-11.1l0.7-0.7 1 0.3c2.5 0.7 2.6 3.2 2.7 4.6 0 0.3 0 0.6 0.1 0.8l0 0.4-0.1 0.4c-1 3.4-0.6 7.9-0.2 11.8 0.1 1 0.2 2.1 0.3 3l0 0.5-0.2 0.4c-0.7 1.3-0.5 2.7-0.3 4.3 0.2 1.4 0.3 3-0.2 4.6 0.6 7.2 0.3 15.8 0 23.3-0.1 3.2-0.3 6.3-0.3 9l0 0.1 0 0.1c-0.4 3.6-0.3 7.4-0.2 11.1 0.1 3.3 0.2 6.8-0.1 9.9 0.8 3.6 0.7 6.9 0.7 10.4 0 1.6 0 3.2 0 4.9l0 0.4-0.1 0.2c0.8 0.9 0.9 1.9 0.6 2.9 0.4 1.3 0.4 2.6 0.5 3.7 0 0.9 0 1.8 0.2 2.6l0.1 0.4-0.2 0.5c-0.2 0.7 0 1.6 0.2 2.5 0.3 1.2 0.6 2.5 0.1 3.9 1.3 2.7 1.7 6 1.9 9.2l0.1 1.1c0.1 0.7-0.2 1.4-0.7 1.9l0 0.1c0 1.5 0.7 2.6 1.7 4.1 1 1.6 2.2 3.4 2.4 5.9l0 0.4 0 0.1c0.1 0.1 0.3 0.2 0.4 0.3 0.6 0.5 1.6 1.3 1.6 2.6 0 0.2 0 0.5-0.1 0.7 1.2 1.1 1.9 2.3 2.6 3.4 0.9 1.6 1.7 2.8 3.6 3.4l1 0.3 0.3 1c0.2 1.1 1.2 1.7 2.6 2.6 1.1 0.7 2.3 1.5 3.3 2.6 1.2-0.1 2 0.3 2.4 0.7 1.5 0.4 2.6 1.2 3.6 2 1.6 1.3 2.1 1.6 3.2 1.1l1.1-0.5 0.7 0.7c0.1 0 0.1 0 0.1 0 0.5 0.2 1.4 0.4 1.9 1.2 0.4 0.1 0.9 0.3 1.2 0.3 0.9 0.3 1.1 0.4 1.4 0.2 0.3-0.2 0.9-0.4 1.6-0.2l0.1-0.1 1.3 0.2 1.7 0.2c5 0.6 9.2 1.2 13.1-0.9l1.4-0.8 0.8 1.3c0.2-0.2 0.3-0.4 0.5-0.6 1-1.1 2.7-3 5.2-2.6 0.6-0.5 1.2-0.9 1.8-1.2 0.2-0.1 0.5-0.3 0.7-0.4l0-0.1 0.3-0.4c0.8-1 2.4-1.5 3.8-1.6 2.9-3.1 5.9-7.2 5.9-9.1l0-1.7 1.3 0 0-0.1c0.5-2.3 1.1-5.1 2.9-6.9-0.5-1.2-0.1-2.5 0.1-3.1 0-0.2 0.1-0.4 0.2-0.6l-0.4-1.3 1.1-1.1 0.3-0.2c-0.1-1.2 0.5-2.2 0.8-3 0.1-0.2 0.2-0.5 0.3-0.7l-0.3-0.6c-1.5-2.9 0.6-4.6 1.5-5.4 0.2-0.1 0.3-0.2 0.4-0.3-0.8-0.6-0.7-1.2-0.9-2.2l0.1-1.3 0.5-0.8 0 0c0 0 0.1-0.1 0.1-0.2 0.1-0.2 0.2-0.6 0.4-1l-0.6-0.6-0.4-1.5 0.9-1.2 0.6-0.3c0-0.7 0.3-1.3 0.5-1.7 0-0.1 0-0.2 0.1-0.3l-0.2-0.8c-0.6-2.8-1.2-6.4 0.5-9.4-0.1-0.1-0.1-0.1-0.2-0.2-0.8-1.1-0.6-2.3-0.4-3.2 0-0.3 0.1-0.8 0.1-1l-0.5-1.7c0-0.1 0.6-0.2 1.1-0.4-0.1-0.2-0.1-0.3-0.2-0.6l-0.4-2 0.8 0c-0.2-0.7-0.2-1.4-0.2-1.9 0-1-0.1-1.7-0.4-2.3l-0.2-0.2-0.1-0.2c-0.5-1.9 0.2-3.6 0.8-5 0.1-0.3 0.2-0.5 0.3-0.8-0.3-0.3-0.6-0.8-0.6-1.4 0-0.2 0.1-0.3 0.1-0.4l-0.4-0.4 0.3-1c0.2-0.6 0.5-1 0.9-1.2l-0.3-0.1c0 0 0-1.3 0-1.3l0-0.5-1.1-0.3 0.5-1.2c-0.3-0.5-0.5-1.3-0.3-2.1l-0.7-1.3c0 0 0.1-0.8 0.7-1.1-0.7-2.3 1-4.1 2.1-5.1 0.4-0.4 0.7-0.8 0.9-1l-0.8 0 0.6-2.2 0-0.1c-0.2-0.2-0.3-0.3-0.5-0.5l-1.4-0.7 0.5-1.9-0.2-0.5c-0.3-1 0-1.7 0.2-2.1 0.1-0.1 0.1-0.1 0.2-0.2-0.5-0.5-1.1-1.2-1.1-2.4l-0.2-1.6 1.3-0.2c-0.1-0.3-0.3-0.7-0.3-1-0.2-0.6-0.3-1.1-0.6-1.5l0 0c-0.1-0.1-0.1-0.1-0.2-0.2l2.3-1.3c-0.3-0.6-0.5-1.2-0.6-1.7-0.1-0.2-0.2-0.5-0.3-0.7l-2.1 0 0.1-2.3c0.1-0.3 0.2-0.7 0.2-1.2 0-0.4 0.1-0.9 0.2-1.4l0-2.2c0-0.3 0.1-0.8 0.1-1.2l-0.3-0.1 0.2-1.2c0-0.6 0-1.2 0-1.9-0.1-0.3-0.1-0.7-0.1-1.1l-1.6-0.8 1.9-2.1c0-0.1 0-0.1 0-0.1-0.2-0.5-0.5-1.2-0.5-2l-1.4 0 2.3-2.9c0.2-0.2 0.4-0.9 0.5-1.3 0 0 0.1-0.2 0.1-0.2-1-0.9-1.1-2.3-1.2-3 0-0.3-0.1-0.8-0.1-1l0 0.1 0.6-0.8c-0.5-0.3-0.7-0.7-0.9-1-0.3-0.5-0.3-1.1-0.2-1.6l-2.2 0 1.9-1.9-1.8-0.6 1.5-1.2 0-4.5c0-0.9 0.3-1.6 1.1-1.9 0 0 0.1 0 0.1 0 0.9-0.6 1.9-0.6 2.7-0.4l0-1.9 2.2 0.7c1.6 0.4 2.8 0.5 4.2 0.3l1.8-0.3 0.2 1.8c0.9 6.9 0.7 13.5 0.5 20-0.2 6.2-0.3 12.2 0.5 18 0.5 1.2 0 2.2-0.4 2.7" fill="#1e5cb3"/><path d="m422.2 169.3 0.4 0.3 0 1-0.3 30.9 0 0.2c-0.6 4.7-0.7 9.8-0.8 15.3-0.1 6.1-0.2 12.4-1.1 18-0.2 8.1-1.7 16.6-3.3 24.9l-1 5.7-0.1 0.5-0.4 0.4c-1.2 1.3-1.7 2.8-2.2 4.6-0.4 1.5-0.8 3-1.7 4.5-2.1 3.8-5.4 7.4-8.3 10.7l-0.2 0.2c-0.7 1-1.6 1.5-2.3 2-0.4 0.3-0.8 0.5-1.3 0.9l-0.7 0.6-0.4-0.1-0.5 0.4c-2.6 2.1-5.1 2.9-7.9 3.9l-0.1 0c-0.9 1.2-2.4 1.4-3.5 1.4l0 0.7-1.5 0.2-6.9 1-1 0.2-0.7-0.8c-0.3-0.3-0.3-0.4-1.8 0.1-0.6 0.3-1.4 0.5-2.1 0.6l-0.8 0.1-0.4-0.4c-0.2 0.2-0.4 0.3-0.8 0.5l-2.9 0.9-0.2-1.3c-1.3 0-2.3-0.2-3.3-0.7l-8.7 0 0.5-1.6c0 0-0.1-0.1-0.1-0.1-1.9 0.4-3.3-0.7-4-1.3-0.1-0.1-0.3-0.2-0.4-0.3-1.5-0.2-2.3-0.9-2.9-1.4-0.4-0.3-0.6-0.4-1-0.5l-0.7 0-0.5-0.6c-0.6-0.8-2.6-1.6-3.7-2.1l-2.3-1.1 0.5-0.5c-0.4-0.2-0.8-0.4-1.1-0.7l-2.2 0 0-1.8c-0.1 0-0.2 0-0.3 0l-1.2 0.5c-0.1 0.1-0.9-1.1-0.9-1.1-1.3-1.9-3.1-3.8-5-5.8-2.1-2.3-4.4-4.7-6.2-7.4l-0.5-0.7 0.3-0.8c-0.4-0.3-1.5-0.9-1.6-2.2-0.9-0.9-1.1-2.2-1.2-3 0-0.3-0.1-0.6-0.2-0.8-0.9-1.1-1.1-2.2-1.2-3.1-0.1-0.7-0.2-1-0.5-1.4l-1.1-1.4 0.5-0.4c-0.3-0.8-0.3-1.7-0.3-2.2 0-0.2 0-0.5 0-0.7l-0.7-0.5 0.2-1.1c0.3-2.2 0-4.2-0.3-6.3-0.3-2-0.5-4.1-0.3-6.5-0.8-1.3-0.6-2.8-0.5-3.8 0-0.3 0.1-0.8 0.1-1l-1.1-0.9 0.8-1.3c0.6-1 0.2-2.6-0.3-4.1-0.4-1.4-0.9-3.3-0.4-4.8-0.1-0.1-0.3-0.3-0.4-0.4-0.2-0.2-0.4-0.7-0.3-1.3 0-1.2-0.2-1.6-0.2-1.6l-0.7-1.6-0.2-0.7 1.4-1c-0.1-1 0-1.9 0.1-2.7 0.2-1.2 0.2-1.6-0.1-2.1l-0.9-1.7 0.9-1.1c0-0.1 0-0.2 0-0.3 0-0.7-0.1-2.1 0.8-3.1 0-0.2 0.1-0.4 0.1-0.5l-1.7-0.4 1.1-2.4c0-0.2-0.1-0.4-0.1-0.6-0.2-0.7-0.5-2.1 0.2-3.2-0.5-1.4-0.2-2.7 0-3.6 0.1-0.2 0.1-0.6 0.2-0.8-1.6-1.6-0.8-3.9-0.4-5-0.7-1.2-0.5-2.5-0.4-3.3l-2.2-0.7 2.2-2.2c-0.1-0.5-0.1-1.1 0.3-1.7 0.3-0.4 0.6-0.7 0.9-0.8l-0.7-0.2c0.1-0.1 0.1-0.2 0.1-0.2l0.8-2 0-0.2c-0.2-1.2 0.1-2.3 0.6-3.2-0.2-0.3-0.3-0.6-0.3-1l-0.9-0.8 0.8-1.2c0.7-0.9 0.4-2.1-0.1-4-0.4-1.7-0.9-3.8 0-5.7l-1.2-1.2 1.5-1.1c-0.1-0.1-0.1-0.2-0.1-0.2-0.4-0.7-1.1-2.1-0.2-3.5l-0.1 0.2c0.3-0.6 0.2-1.8 0-3-0.2-1.8-0.5-3.8 0.4-5.9l-0.3-2.1 0.1 0.3c-0.3-0.8-0.1-1.5 0.2-2.1l-0.7-0.3 0.5-1.4c0.5-1.5 0.5-3.4 0.5-5.4 0-3.7 0-7.9 3.4-11.1l0.7-0.7 1 0.3c2.5 0.7 2.7 3.3 2.7 4.6 0 0.3 0.1 0.5 0.1 0.8l0 0.4-0.1 0.4c-1 3.4-0.6 7.8-0.2 11.8 0.1 1 0.2 2 0.3 3l0 0.5-0.2 0.5c-0.7 1.4-0.5 2.7-0.3 4.3 0.2 1.4 0.3 3-0.2 4.7 0.6 7.2 0.3 15.7 0 23.3-0.1 3.2-0.2 6.2-0.3 9l0 0.2c-0.4 3.5-0.3 7.4-0.2 11.1 0.1 3.3 0.2 6.7 0 9.9 0.8 3.6 0.7 6.9 0.6 10.4 0 1.6 0 3.2 0 5l0 0.4-0.1 0.2c0.8 0.9 0.9 1.9 0.6 2.8 0.4 1.4 0.4 2.6 0.5 3.8 0.1 0.9 0.1 1.7 0.2 2.5l0.1 0.4-0.1 0.4c-0.2 0.8 0 1.6 0.2 2.6 0.3 1.1 0.6 2.5 0.1 3.8 1.4 2.7 1.6 6.1 1.9 9.3l0.1 1.1c0.1 0.7-0.2 1.4-0.7 2l0 0.1c0 1.4 0.7 2.6 1.6 4 1 1.6 2.2 3.4 2.5 5.9l0 0.4 0 0.1c0.1 0.1 0.3 0.2 0.4 0.4 0.6 0.5 1.6 1.3 1.5 2.6 0 0.2 0 0.5-0.1 0.7 1.2 1.1 1.9 2.3 2.6 3.4 1 1.6 1.7 2.8 3.6 3.3l0.9 0.3 0.3 1c0.3 1 1.2 1.7 2.7 2.6 1.1 0.7 2.3 1.5 3.2 2.6 1.3-0.1 2 0.3 2.4 0.7 1.5 0.3 2.7 1.2 3.6 2 1.6 1.3 2.1 1.5 3.1 1l1.1-0.5 0.6 0.7c0.1 0 0.1 0 0.2 0 0.5 0.1 1.3 0.4 1.9 1.2 0.4 0.1 0.9 0.2 1.2 0.3 0.9 0.3 1.1 0.3 1.4 0.2 0.3-0.2 0.9-0.4 1.6-0.2l0.1-0.1 1.3 0.2 1.6 0.2c4.9 0.6 9.2 1.2 13.1-0.9l1.4-0.7 0.8 1.2c0.2-0.2 0.4-0.4 0.5-0.6 1-1.1 2.7-3 5.2-2.6 0.5-0.4 1.2-0.9 1.7-1.2 0.2-0.1 0.5-0.3 0.7-0.4l0-0.1 0.4-0.4c0.8-1 2.5-1.5 3.8-1.6 2.9-3.1 5.8-7.2 5.8-9l0-1.7 1.3 0 0-0.1c0.5-2.3 1.1-5.1 2.9-6.9-0.5-1.1-0.1-2.5 0.1-3.1 0.1-0.2 0.1-0.4 0.2-0.6l-0.4-1.3 1.1-1.1 0.3-0.2c-0.1-1.2 0.5-2.3 0.8-3.1 0.1-0.2 0.2-0.4 0.3-0.7l-0.3-0.6c-1.5-3 0.5-4.6 1.5-5.4 0.2-0.1 0.3-0.2 0.4-0.3-0.8-0.6-0.7-1.2-0.9-2.3l0.1-1.3 0.6-0.8 0 0c0 0 0-0.1 0.1-0.2 0.1-0.2 0.2-0.6 0.4-1l-0.6-0.6-0.4-1.6 0.8-1.2 0.7-0.4c-0.1-0.7 0.2-1.3 0.4-1.7 0-0.1 0.1-0.2 0.1-0.2l-0.2-0.8c-0.6-2.8-1.3-6.4 0.5-9.4-0.1 0-0.1-0.1-0.1-0.1-0.8-1.2-0.7-2.4-0.5-3.3 0-0.3 0.1-0.7 0.1-0.9l-0.5-1.8c0-0.1 0.6-0.2 1.1-0.3-0.1-0.2-0.1-0.4-0.2-0.5l-0.4-2.1 0.7 0c-0.1-0.7-0.2-1.3-0.2-1.9 0-1 0-1.7-0.4-2.3l-0.2-0.2-0.1-0.3c-0.5-1.9 0.2-3.6 0.7-5 0.1-0.3 0.2-0.6 0.3-0.8-0.3-0.3-0.6-0.8-0.5-1.5 0-0.2 0.1-0.3 0.1-0.4l-0.4-0.4 0.3-1c0.1-0.6 0.5-0.9 0.9-1.1l-0.3-0.1c-0.1 0-0.1-1.3-0.1-1.3l0-0.5-1.1-0.3 0.5-1.1c-0.2-0.5-0.5-1.3-0.2-2.1l-0.8-1.4c0 0 0.2-0.7 0.8-1.1-0.7-2.3 1-4 2-5.1 0.4-0.4 0.7-0.7 0.9-1l-0.9 0 0.7-2.2 0-0.1c-0.2-0.1-0.3-0.3-0.5-0.5l-1.4-0.7 0.4-1.9-0.2-0.5c-0.3-1-0.1-1.7 0.2-2.1 0.1-0.1 0.2-0.1 0.2-0.2-0.5-0.5-1.2-1.3-1.2-2.4l-0.2-1.6 1.3-0.2c-0.1-0.3-0.2-0.7-0.3-1-0.2-0.6-0.3-1.1-0.6-1.6l0 0c0-0.1-0.1-0.2-0.1-0.2l2.3-1.3c-0.3-0.6-0.5-1.2-0.6-1.7-0.1-0.3-0.2-0.6-0.3-0.7l-2.1 0 0.1-2.2c0.1-0.4 0.2-0.7 0.2-1.2 0-0.4 0.1-0.9 0.2-1.3l0-2.3c0-0.3 0-0.7 0.1-1.2l-0.3-0.1 0.2-1.2c0.1-0.6 0-1.2 0-1.9 0-0.3-0.1-0.7-0.1-1.1l-1.6-0.8 1.9-2.1c0 0-0.1-0.1-0.1-0.2-0.2-0.5-0.4-1.2-0.4-2l-1.4 0 2.3-2.8c0.2-0.2 0.4-0.9 0.5-1.3 0-0.1 0-0.1 0.1-0.2-0.9-0.9-1.1-2.3-1.2-3.1 0-0.3-0.1-0.8-0.1-0.9l0 0 0.6-0.7c-0.4-0.4-0.7-0.7-0.9-1.1-0.2-0.5-0.3-1.1-0.2-1.6l-2.3 0 1.9-1.8-1.8-0.6 1.5-1.2 0-4.6c0-0.8 0.4-1.5 1.1-1.9 0 0 0.1 0 0.1 0 0.9-0.6 1.9-0.6 2.7-0.4l0-1.9 2.3 0.7c1.6 0.5 2.8 0.6 4.1 0.3l1.8-0.3 0.2 1.8c0.9 6.8 0.8 13.5 0.6 20-0.2 6.3-0.3 12.2 0.5 18 0.5 1.1 0 2.2-0.4 2.7" fill="#f25c19"/><path d="m25 449.1 424.1 0 0-424.1-424.1 0 0 424.1zM0 0l474.2 0 0 474.1L0 474.1 0 0" fill="#f25c19"/><path d="m1454 263.4c24.1 19.2 44.8 40.8 44.8 76.7 0 23.2-14 65.8-93.4 65.8-14.9 0-32-1.3-53.5-1.3-8.7 0-36.3 1.3-59.6 1.3l-5.8 0c-17.1 0-44.7-1.3-50-1.3-0.4 0-28.1 1.3-50.4 1.3-6.1 0-9.2-0.9-9.2-3.9 0-3.1 2.7-4 7.5-4 4.8 0 12.3-0.4 15.7-1.3 14.5-3.1 18-10.1 18.9-25 0.8-14 0.8-26.3 0.8-92.9l0-54.8c0-45.1-1.3-84.6-25.4-108.7-17.5-17.6-41.2-23.7-60.5-23.7-14.9 0-35.1 1.8-54.8 18-21.5 17.5-34.2 44.3-34.2 107.8l0 61.4c0 66.6 0 78.9 0.9 92.9 0.9 15.3 4.4 22.8 16.2 25 5.3 0.9 7.9 1.3 12.7 1.3 4.4 0 7 0.9 7 4 0 3-3 3.9-9.6 3.9-15.8 0-43.4-1.3-53.9-1.3-9.9 0-27.9 0.7-46.1 1.1-1.2 0.1-2.5 0.2-4 0.2-1.6 0-3.4 0-5.2-0.1-3 0-5.9 0.1-8.8 0.1-2.7 0-23.1-1.3-27.3-1.3-5.7 0-24.1 1.3-46 1.3-8.3 0-12.3-0.9-12.3-4.4 0-3.1 3.5-3.5 7.5-3.5 5.7 0 12.3-0.4 17.5-2.2 3.9-1.3 5.7-4.8 5.7-8.3 0-3.9-1.8-10.5-3.9-16.2-10.5-28.9-67.5-170.1-86.4-218.3l-1.8 0-75.4 199.1c-6.1 15.8-10 28-10 33.8 0 3.9 1.3 7 4.4 9.2 3.5 2.6 10.1 3.1 17.1 3.1 4 0 6.6 0.9 6.6 4 0 3.1-4.8 3.9-10.1 3.9-21.9 0-43-1.3-53.9-1.3-15.3 0-40.3 1.3-63.6 1.3-6.5 0-11.4-0.4-11.4-3.9 0-2.6 1.3-4 5.2-4 3.5 0 10.6 0 17.1-1.7 15.8-4.4 23.2-9.2 33.3-33.3l110.5-267.9c8.3-20.6 10.9-26.7 16.6-26.7 6.1 0 8.8 7 20.2 32.5 9.6 21.9 30.2 69.7 58.3 133.7 23.7 53.9 35.5 77.6 52.6 118.8 11.9 28 18.4 35.5 24.1 39.4 4.6 3 12.1 5.8 20.2 4 14.4-3.3 18-10.1 18.9-25 0.9-14 0.9-26.3 0.9-92.9l0-64c0-63.5 16.7-96 39-116.1 32-29 74.1-30.3 97.3-30.3 28.5 0 60.1 4.8 91.2 31.6 36.9 31.6 41.7 83.3 41.7 131.9l0 46.9c0 66.6 0 78.9 0.9 92.9 0.9 15.3 4.3 22.7 16.2 25 11.5 2.2 24.4 1.6 32.2 0 14.5-2.9 18-10.1 18.8-25 0.9-14 0.9-26.3 0.9-92.9l0-77.1c0-40.3 0-75-2.2-93.4-1.7-12.7-3.9-22.4-12.7-24.1-4-0.9-9.2-1.8-15.8-1.8-5.3 0-7-1.3-7-3.5 0-3.1 3.1-4.4 8.8-4.4 8.8 0 20.2 0.9 30.3 0.9 10.5 0.4 20.1 0.4 25 0.4 6.5 0 19.7-0.4 32.9-1.3 12.7-0.4 25.4-1.3 30.7-1.3 80.7 0 117.1 48.7 117.1 95.6 0 51.3-43.8 82.4-79.8 94.7m-74.5 116.2c0 4.8 0.9 6.6 3.9 7.4 4.4 0.9 8.3 0.9 14.5 0.9 37.7 0 54.8-38.6 54.8-67.9 0-21.5-6.6-37.3-18-46.4-7.5-6.6-17.1-8.4-31.6-8.4-10.1 0-16.7 0.4-20.6 1.3-1.7 0.4-3.1 1.3-3.1 4.8l0 108.3zm47.4-286.7c-10.1 0-20.2 0.5-32 5.3-14 5.7-15.3 13.1-15.3 42.1l0 103.9c0 2.1 0.9 3.1 2.6 3.1 6.6 0 11 0 18.9-0.4 17.1-0.9 27.2-4 36.4-10.5 33.3-23.2 42.5-60.1 42.5-87.2 0-45.6-33.3-56.1-53-56.1" fill="#007032"/><path d="m1859.3 148.1c0-45.8-33.6-56.4-53.4-56.4-10.1 0-20.3 0.5-32.1 5.3-14.1 5.7-15.3 13.2-15.3 42.3l0 104.3c0 2.2 0.9 3.1 2.5 3.1 6.6 0 11.1 0 19-0.4 17.2-0.8 27.3-3.9 36.6-10.6 33.5-23.3 42.8-60.3 42.8-87.6m-153.8 52.9c0-40.5 0-75.3-2.2-93.8-1.8-12.8-3.9-22.4-12.7-24.3-4-0.8-9.2-1.7-15.9-1.7-5.3 0-7-1.3-7-3.5 0-3 3.1-4.3 8.8-4.3 17.6 0 45.3 1.3 55.4 1.3 13.4 0 53.4-2.6 63.9-2.6 81 0 117.6 48.9 117.6 95.9 0 51.5-44.1 82.8-80.1 95.2 24.2 19.3 44.9 40.8 44.9 77 0 23.3-14 66-93.9 66-14.9 0-32.1-1.3-53.7-1.3-8.8 0-36.5 1.3-59.8 1.3-6.6 0-9.7-0.8-9.7-4 0-3.1 2.6-4 7.5-4 6.1 0 13.6-0.4 17.2-1.3 14.5-3.1 18.1-10.1 18.9-25 0.9-14.1 0.9-26.4 0.9-93.4l0-77.5zm52.9 178.8c0 4.8 0.9 6.6 3.9 7.5 4.4 0.8 8.4 0.8 14.5 0.8 37.9 0 55.1-38.7 55.1-68.2 0-21.6-6.6-37.5-18.1-46.7-7.5-6.6-17.2-8.4-31.7-8.4-10.1 0-16.7 0.4-20.7 1.3-1.7 0.5-3 1.3-3 4.9l0 108.7" fill="#007032"/><path d="m2532.5 402.9c-21.5 0-38.1-1.3-43-1.3-9.2 0-30.2 1.3-52.9 1.3-6.5 0-11.4-0.5-11.4-3.9 0-2.7 1.7-3.9 6.9-3.9 6.2 0 16.7 0 23.2-2.7 10.6-4.4 14.4-12.6 14.9-39.3l4.4-196.5-2.2 0c-7.5 7-66.4 70.1-96.3 99.8-63.9 63.4-130.4 134.7-135.6 140.5-7.4 7.9-11.4 13.6-16.2 13.6-4.4 0-5.6-6.1-5.6-14.9l-4-259.1c-0.5-38.1-4.7-54.2-13.6-54.2-16.7 0-21.5 10.8-36.7 46.9-28 66.5-98 245.1-108.6 269.1-4.4 10.1-7 13.9-10.9 13.9-4.4 0-7-4.8-12.4-17.4L1922.8 119.7c-8.8-21.8-17.1-36.7-37.2-39.3-3.5-0.4-3.8-0.8-7.8-0.8-3.5 0-5.2-1-5.2-3.6 0-3.4 2.7-4.3 8.4-4.3 22.6 0 41 1.3 45.8 1.3 13.7 0 32.3-1.3 46.4-1.3 4.9 0 7.4 0.9 7.4 4.3 0 2.6-1.3 3.6-6.5 3.6l-6.6 0c-13.6 0-17.5 5.6-17.5 13.5 0 5.3 2.3 15.7 6.6 26.6l23.7 62.6c0.9 2.7 1.8 3.6 3.9 3.6l97.6 0c2.1 0 3.6-0.9 4.5-3.1l35-92.7c2.1-5.3-0.8-9.3-4-10.1-4.4-0.3-6.1-1.3-6.1-3.9 0-3.1 5.3-3.1 13.2-3.4 35-0.9 66.9-0.9 82.7-0.9 9.8 0 50.3 0.3 78.6 0.3 6.2 0 10.1 0.9 10.1 4.4 0 2.6-2.6 3.5-7.4 3.5-7 0-15.2 0.3-22.7 3-8.7 3-14.5 14.5-15.4 48.6l-4.8 183.8 1.3 0c7.9-8.3 56.4-63 104.1-110.3 45.5-45 101.4-102.3 129.1-128.6 4.8-4.9 10-9.6 14.8-9.6 3.9 0 5.7 3.9 5.7 13.5l4.8 276.2c0.5 24.5 3.9 33.7 16.3 37.2 5.3 1.4 8.7 1.4 13.1 1.4 5.2 0 7.8 1.3 7.8 3.9 0 3.5-4.3 3.9-9.9 3.9m-459.1-195.1-80.5 0c-1.8 0-2.2 1.4-1.8 3.1l40.2 107.6c0.6 1.8 1.3 4 2.7 4 1.3 0 1.7-2.2 2.2-4l39.4-108.1c0.4-1.3 0-2.7-2.2-2.7" fill="#007032"/><path d="m2632 276.5c0 66.5 0 78.8 0.9 92.8 0.9 15.4 4.4 22.8 16.2 25 5.3 0.8 7.9 1.3 12.3 1.3 3.5 0 6.1 0.8 6.1 3.9 0 3.1-3.1 4-9.2 4-14.9 0-42.5-1.3-52.9-1.3-10.5 0-38.1 1.3-61.3 1.3-6.5 0-9.6-0.9-9.6-4 0-3.1 2.6-3.9 7.4-3.9 6.1 0 13.5-0.5 17-1.3 14.4-3.1 18-10.1 18.8-25 0.9-14 0.9-26.2 0.9-92.8l0-77c0-40.2 0-74.8-2.2-93.2-1.7-12.7-3.9-22.3-12.7-24.1-3.9-0.8-9.2-1.7-15.8-1.7-5.3 0-7-1.3-7-3.5 0-3.1 3.1-4.4 8.8-4.4 17.5 0 45.1 1.3 55.1 1.3 10.9 0 38.5-1.3 63-1.3 4.8 0 8.3 1.3 8.3 4.4 0 2.2-2.2 3.5-5.7 3.5-5.7 0-15.3 0.9-21.4 1.7-10.9 1.8-14.9 11.4-15.7 23.6-1.3 18.8-1.3 53.4-1.3 93.6l0 39.8 2.2 0 4.8-6.6c9.2-12.7 95.3-113.8 114.6-130.8 18.8-16.6 30.6-26.3 54.3-28.4 9.2-0.9 17.1-0.9 30.2-0.9l38 0c8.3 0 10.5 1.3 10.5 4.4 0 2.6-2.6 3.5-5.7 3.5-5.2 0-14 1.3-27.1 6.6-23.7 9.2-43.3 28.9-62.6 47.2-17 16.2-102.8 108.5-118.6 129.1 14.8 15.7 80.9 81.3 94.5 94.5 18.8 18.4 33.7 27.5 47.3 32.8 8.3 3 19.3 4.8 25.4 4.8 4.4 0 6.5 0.8 6.5 3.9 0 3.1-3 4-7.4 4-13.6 0-37.6-1.3-51.2-1.3-11.8 0-35.9 1.3-45.1 1.3-4.8 0-7-0.9-7-4 0-2.6 1.8-3.5 5.7-4.4 4.3-0.8 6.1-3.9 6.1-8.7 0-7.5-9.6-18.4-21.9-32.8-12.7-14.9-76.6-80.1-91.4-96.3l-2.2 0 0 19.3" fill="#007032"/><path d="m3074.1 186.6c2.2 0 3.5-0.9 4.4-3l34.9-92.4c2.2-5.2-0.9-9.1-3.9-10-4.3-0.4-6.1-1.3-6.1-3.9 0-3 5.2-3 13.1-3.5 34.9-0.9 66.7-0.9 82.4-0.9 16.1 0 20.1 0.9 20.1 4.4 0 3.1-2.2 3.5-5.7 3.5-5.2 0-11.8 0.4-18.3 1.7-9.1 2.6-21.8 8.7-38.3 47.8-27.9 66-97.6 243.9-108.2 267.9-4.3 10-6.9 13.9-10.8 13.9-4.4 0-7-4.8-12.2-17.4L2915.9 120.8c-8.7-21.8-17-36.6-37-39.2-3.5-0.4-9.6-0.9-13.5-0.9-3.5 0-5.2-0.9-5.2-3.5 0-3.5 2.6-4.4 8.3-4.4 22.7 0 46.6 1.3 51.4 1.3 13.5 0 32.3-1.3 46.2-1.3 4.8 0 7.4 0.9 7.4 4.4 0 2.6-1.3 3.5-6.5 3.5l-6.5 0c-13.5 0-17.4 5.7-17.4 13.5 0 5.2 2.2 15.7 6.5 26.6l23.6 62.3c0.9 2.6 1.8 3.5 3.9 3.5l97.2 0zm-88.5 21.8c-1.7 0-2.1 1.3-1.7 3l40.1 107.3c0.5 1.7 1.3 3.9 2.6 3.9 1.3 0 1.7-2.2 2.2-3.9l39.3-107.7c0.4-1.3 0-2.6-2.2-2.6l-80.2 0" fill="#007032"/><path d="m1081.7 445.8c0 3.4 5.4 4.9 10.3 8.8 22.4 16.1 49.7 43.9 54.1 49.7 4.9 6.8 5.4 10.7 7.8 10.7 2.4 0 3.9-1 9.3-3.4 6.3-2.9 23.4-9.3 32.7-12.2 3.9-1 6.3-1.9 6.3-4.4 0-2.9-6.8-8.3-16.1-12.2-8.3-3.9-91.7-40.5-99-40.5-2 0-5.4 1-5.4 3.4" fill="#007032"/></g></g></svg>